<?xml version="1.0" encoding="UTF-8"?>
<svg version="1.1" xmlns="http://www.w3.org/2000/svg" width="1080" height="1080">
<path d="M0 0 C356.4 0 712.8 0 1080 0 C1080 356.4 1080 712.8 1080 1080 C723.6 1080 367.2 1080 0 1080 C0 723.6 0 367.2 0 0 Z " fill="#21D2ED" transform="translate(0,0)"/>
<path d="M0 0 C1.1681556 -0.00320648 2.33631121 -0.00641296 3.53986546 -0.0097166 C6.76956005 -0.01656621 9.99910491 -0.01452745 13.2287968 -0.00866088 C16.74734065 -0.00447697 20.26586369 -0.0119002 23.78440243 -0.01781338 C29.94695666 -0.0265658 36.10947765 -0.02789091 42.27203655 -0.02431011 C51.43607408 -0.01899936 60.60007948 -0.02510214 69.76411351 -0.03339304 C87.08323185 -0.04863138 104.40233557 -0.05033832 121.7214592 -0.04787002 C135.09450857 -0.04603729 148.46755315 -0.04779654 161.84060192 -0.05209446 C163.7619578 -0.05269686 165.68331368 -0.05329806 167.60466956 -0.05389806 C170.4999635 -0.05480532 173.39525744 -0.05571398 176.29055137 -0.05663041 C203.2082097 -0.06505961 230.12586623 -0.06939583 257.0435257 -0.06522369 C258.56555685 -0.06498913 258.56555685 -0.06498913 260.11833611 -0.06474983 C265.26116961 -0.06394404 270.40400311 -0.06309827 275.54683661 -0.06223653 C277.07891108 -0.06197989 277.07891108 -0.06197989 278.64193655 -0.06171808 C280.70742009 -0.06137142 282.77290364 -0.06102289 284.83838718 -0.06067249 C316.98311249 -0.05531433 349.12781037 -0.06324856 381.27253056 -0.08170605 C417.38742536 -0.10241892 453.50230317 -0.1131502 489.61720425 -0.10913056 C493.46740663 -0.10873521 497.31760901 -0.10837367 501.16781139 -0.10803318 C502.58983798 -0.10789708 502.58983798 -0.10789708 504.04059237 -0.10775824 C518.35511457 -0.10659201 532.66961962 -0.11324245 546.98413754 -0.1238451 C563.26156342 -0.13588937 579.5389515 -0.1374649 595.81637793 -0.12505493 C604.92568885 -0.11842088 614.03490941 -0.12007001 623.14421311 -0.13364345 C629.2299123 -0.1418805 635.31554372 -0.13920009 641.40123739 -0.12766818 C644.86796132 -0.12140443 648.33450879 -0.11982975 651.80122261 -0.13153151 C655.53977579 -0.14161477 659.27785388 -0.13323421 663.01638794 -0.12025452 C664.08681763 -0.12756386 665.15724733 -0.13487321 666.26011428 -0.14240405 C683.2621594 -0.0199127 699.02410333 7.34110793 711.07111454 19.25447559 C724.0111134 34.01732646 728.22248551 50.81333948 728.21828556 69.92728138 C728.22196225 70.84701353 728.22563894 71.76674568 728.22942704 72.7143485 C728.24035761 75.76719946 728.24428928 78.82001629 728.24811649 81.8728838 C728.2543886 84.07311579 728.26103606 86.27334673 728.26802921 88.47357655 C728.28896252 95.66746262 728.29941346 102.86134867 728.30939579 110.05525684 C728.31344572 112.53594632 728.31756271 115.01663569 728.32174587 117.49732494 C728.34076464 129.14084076 728.35500919 140.78435033 728.36335784 152.42787868 C728.36432635 153.76436476 728.36530059 155.10085084 728.36628056 156.43733692 C728.3667643 157.10026806 728.36724804 157.7631992 728.36774644 158.44621917 C728.37606471 169.20902508 728.40144336 179.97172052 728.43386123 190.73447809 C728.46691498 201.79876871 728.48460824 212.8630132 728.48813885 223.92735451 C728.49049233 230.1341742 728.49949364 236.34081831 728.52460003 242.54759121 C728.54780701 248.37779604 728.55214372 254.20770868 728.54183865 260.03794765 C728.54134158 262.17895445 728.54771213 264.31997532 728.56139469 266.46093845 C728.57900878 269.37984215 728.57205944 272.2976848 728.55886173 275.21658802 C728.5753156 276.49186854 728.5753156 276.49186854 728.59210187 277.7929123 C728.54872682 281.75625577 728.33791466 283.80734929 726.26328659 287.28418732 C724.07111454 289.25447559 724.07111454 289.25447559 720.50861454 289.81697559 C717.07111454 289.25447559 717.07111454 289.25447559 715.37950897 287.78964615 C713.401642 283.95729255 713.66245047 280.38269678 713.69930363 276.12924671 C713.69547906 275.19578433 713.6916545 274.26232194 713.68771404 273.30057281 C713.67840973 270.16469479 713.69043303 267.02925605 713.70221806 263.89339161 C713.69975071 261.64791143 713.69591297 259.4024324 713.69080448 257.15695667 C713.68245578 252.31587935 713.68328344 247.47491961 713.69098949 242.63384151 C713.70256188 234.97216944 713.69041704 227.31064888 713.67437077 219.64899158 C713.6539208 208.89939732 713.64106151 198.14983879 713.63727665 187.40022755 C713.63703178 186.71805819 713.63678691 186.03588884 713.63653462 185.33304768 C713.63399215 177.73310585 713.63342005 170.1331653 713.63446903 162.53322315 C713.63480202 159.7828366 713.63508743 157.03245005 713.63532352 154.28206348 C713.63538631 153.60345564 713.6354491 152.92484779 713.63551379 152.22567607 C713.63612012 140.88125292 713.62097693 129.53692146 713.59449047 118.19252437 C713.57772887 110.58413422 713.57946464 102.97604562 713.59531319 95.36765683 C713.60112978 90.61972691 713.59033391 85.87193841 713.57506657 81.12403393 C713.5713549 78.93157613 713.57440597 76.73909416 713.5849371 74.54665852 C713.66702529 56.22723983 711.75238964 41.43541909 698.69611454 27.37947559 C694.92711102 23.84709113 690.69809427 21.49386792 686.07111454 19.25447559 C685.13912235 18.79041309 685.13912235 18.79041309 684.18830204 18.31697559 C677.31034434 15.10931819 670.17259407 15.09981565 662.73932743 15.04915333 C661.83122318 15.03925373 660.92311893 15.02935413 659.98749638 15.01915455 C657.00628041 14.98773918 654.02504856 14.96286159 651.04377079 14.93806934 C648.96868841 14.91748255 646.89361007 14.89648564 644.8185358 14.87509632 C639.3721224 14.8200538 633.92567226 14.77056632 628.47919559 14.72224903 C622.91540118 14.67190346 617.35165972 14.61628571 611.78791142 14.56111622 C600.88235776 14.45375277 589.976758 14.35225985 579.07111454 14.25447559 C579.31674892 15.22179363 579.31674892 15.22179363 579.56734562 16.20865345 C582.7452835 28.74963659 585.83164612 41.28354705 588.50861454 53.94197559 C590.71797841 64.25066658 593.05741899 74.51476977 595.57111454 84.75447559 C598.22351491 95.56469121 600.66468782 106.40533638 603.00861454 117.28523731 C605.06347797 126.80962107 607.24923778 136.29075469 609.57111454 145.75447559 C612.05819246 155.89153871 614.37293906 166.05199923 616.57111454 176.25447559 C618.75143866 186.37176217 621.04322655 196.45193795 623.50861454 206.50447559 C626.14580006 217.26798426 628.62222821 228.05830832 631.00861454 238.87947559 C631.68299239 241.93548755 632.35741222 244.99149021 633.03205204 248.04744434 C633.28394794 249.18857433 633.28394794 249.18857433 633.54093266 250.35275745 C635.37292478 258.63983157 637.24469138 266.91770826 639.13361454 275.19197559 C639.29847355 275.91455555 639.46333256 276.63713551 639.63318729 277.38161182 C642.2455688 288.81443018 644.9815858 300.21365606 647.76300907 311.60652637 C649.7487872 319.78634643 651.56900577 327.97141865 653.07111454 336.25447559 C654.25447392 336.29185841 655.43783329 336.32924122 656.65705204 336.36775684 C673.74717056 337.02618224 686.86880243 340.88169737 700.07111454 352.25447559 C700.67697392 352.76494434 701.28283329 353.27541309 701.90705204 353.80135059 C712.00229797 363.02867945 718.7323037 376.293653 719.44611454 389.88728809 C719.77609582 400.88896762 719.70638216 411.10034245 715.07111454 421.25447559 C714.45236454 422.65633106 714.45236454 422.65633106 713.82111454 424.08650684 C705.53438176 440.9189328 691.10870157 449.98632629 674.07111454 456.25447559 C659.87933706 460.08695233 644.16733172 457.01703429 631.32111454 450.56697559 C625.54712532 447.19598483 620.79168238 442.9588771 616.07111454 438.25447559 C615.09658329 437.31474903 615.09658329 437.31474903 614.10236454 436.35603809 C604.03306669 425.88926796 599.47606589 410.63012605 599.63361454 396.37947559 C599.6449744 394.93157642 599.6449744 394.93157642 599.65656376 393.45442677 C599.82590907 386.11509988 600.85527598 379.91801568 604.07111454 373.25447559 C604.6724622 371.89902637 604.6724622 371.89902637 605.28595829 370.51619434 C611.80608657 357.15465611 622.30283353 348.32743126 635.07111454 341.25447559 C636.06111454 340.92447559 637.05111454 340.59447559 638.07111454 340.25447559 C637.56899038 332.29479435 635.90453385 324.84474907 633.94611454 317.12947559 C633.30380602 314.53901365 632.6636258 311.94816988 632.02814579 309.35603809 C631.86473194 308.69043873 631.70131809 308.02483936 631.53295231 307.33907032 C629.76592188 300.08972589 628.19775039 292.79974063 626.63361454 285.50447559 C624.10974096 273.75768832 621.3660288 262.07945364 618.49375248 250.41328907 C615.91663703 239.93040946 613.56824579 229.4189142 611.3599329 218.85115528 C609.44314801 209.77171575 607.2895768 200.76359672 605.07111454 191.75447559 C602.57500414 181.61783212 600.20697719 171.47479469 598.07111454 161.25447559 C595.94674814 151.09955328 593.60695439 141.01605035 591.13361454 130.94197559 C588.22857798 119.10458225 585.45003824 107.24724204 582.7883997 95.35213184 C580.59411029 85.55022992 578.35554835 75.75919912 576.09351444 65.97270679 C575.51400187 63.46528538 574.93531094 60.95767547 574.35675907 58.45003223 C572.78741729 51.65198304 571.21560766 44.85461171 569.61785221 38.06317616 C569.17989877 36.20120651 568.74376045 34.33881021 568.30768681 32.47639942 C567.79109185 30.27222938 567.27098671 28.06887778 566.74665165 25.86653614 C566.52243534 24.90787647 566.29821903 23.9492168 566.06720829 22.96150684 C565.87312382 22.14142139 565.67903934 21.32133595 565.47907352 20.47639942 C565.07111454 18.25447559 565.07111454 18.25447559 565.07111454 14.25447559 C539.66111454 14.25447559 514.25111454 14.25447559 488.07111454 14.25447559 C488.40111454 124.14447559 488.73111454 234.03447559 489.07111454 347.25447559 C492.70111454 347.91447559 496.33111454 348.57447559 500.07111454 349.25447559 C509.07609347 352.69290924 516.99573261 357.71452797 524.07111454 364.25447559 C524.69373173 364.82295216 525.31634892 365.39142872 525.95783329 365.97713184 C536.12497775 376.37275146 541.4439448 391.30842949 541.32111454 405.56697559 C541.32884892 406.45320606 541.33658329 407.33943653 541.34455204 408.25252247 C541.31751422 417.51973377 539.86083781 425.84293525 535.63361454 434.12947559 C535.28725956 434.81002003 534.94090458 435.49056446 534.58405399 436.19173145 C528.65615126 447.26710548 520.17495088 455.33795384 509.07111454 461.25447559 C508.31056767 461.66310841 507.55002079 462.07174122 506.76642704 462.49275684 C494.34776292 468.5695053 476.98553619 469.67775893 463.80548954 465.34431934 C447.00849794 458.64951841 434.72506415 449.4019899 426.83283329 432.62166309 C421.18926858 419.20024012 419.25001945 402.66480211 423.69611454 388.56697559 C424.43596159 386.77387405 425.2269297 385.00088298 426.07111454 383.25447559 C426.68986454 381.88162403 426.68986454 381.88162403 427.32111454 380.48103809 C434.58678377 365.74328859 447.66559349 354.79353934 463.07111454 349.25447559 C467.03111454 348.59447559 470.99111454 347.93447559 475.07111454 347.25447559 C475.07111454 237.36447559 475.07111454 127.47447559 475.07111454 14.25447559 C429.86111454 14.25447559 384.65111454 14.25447559 338.07111454 14.25447559 C338.07111454 124.47447559 338.07111454 234.69447559 338.07111454 348.25447559 C340.38111454 348.25447559 342.69111454 348.25447559 345.07111454 348.25447559 C361.16081868 352.59709475 374.99961353 362.59784637 383.44611454 377.00447559 C391.03608347 390.82124829 393.65207813 406.54252699 390.00861454 422.00447559 C386.23909056 433.41824356 380.71742764 442.84959532 372.07111454 451.25447559 C371.13332157 452.22320606 371.13332157 452.22320606 370.17658329 453.21150684 C364.64465856 458.55709306 358.16765846 461.45320826 351.07111454 464.25447559 C349.79494267 464.76881153 349.79494267 464.76881153 348.49298954 465.29353809 C334.42094339 470.02847186 318.36434022 468.3934153 305.07111454 462.25447559 C288.93936388 454.11460141 279.40393795 440.93815583 273.05158329 424.43025684 C268.47190591 409.59648112 270.30989922 393.32201975 277.19611454 379.62947559 C280.74183022 373.38333089 284.97880297 368.29153604 290.07111454 363.25447559 C290.5880286 362.70404591 291.10494267 362.15361622 291.63752079 361.58650684 C295.48050515 357.8438615 300.10963827 355.41950063 304.82111454 352.94197559 C305.46443729 352.59183399 306.10776005 352.24169239 306.77057743 351.88094044 C312.96313117 348.77354932 316.43835559 348.94836277 324.07111454 348.25447559 C324.07111454 238.03447559 324.07111454 127.81447559 324.07111454 14.25447559 C278.86111454 14.25447559 233.65111454 14.25447559 187.07111454 14.25447559 C187.56611454 179.08947559 187.56611454 179.08947559 188.07111454 347.25447559 C191.70111454 347.91447559 195.33111454 348.57447559 199.07111454 349.25447559 C216.80168885 356.02466393 228.23516207 367.94189126 236.62580204 384.66463184 C242.92556822 400.31188893 241.55741625 417.94817632 235.07111454 433.25447559 C227.8153042 448.60491829 214.83067618 459.39896358 199.07111454 465.25447559 C184.11407656 470.16345216 166.43766042 468.09749291 152.57111454 461.25447559 C137.2893273 452.55871671 127.13229489 439.43549955 121.95783329 422.64119434 C118.3091441 407.19701691 120.12401743 390.72846752 127.90314579 377.02791309 C136.84099309 362.81902765 149.62596097 352.57315836 166.07111454 348.25447559 C168.38111454 347.92447559 170.69111454 347.59447559 173.07111454 347.25447559 C173.40111454 237.36447559 173.73111454 127.47447559 174.07111454 14.25447559 C128.86111454 14.25447559 83.65111454 14.25447559 37.07111454 14.25447559 C37.07111454 124.47447559 37.07111454 234.69447559 37.07111454 348.25447559 C39.38111454 348.25447559 41.69111454 348.25447559 44.07111454 348.25447559 C61.4026297 352.93226016 74.34260315 363.6028666 83.34455204 378.89900684 C90.48123682 392.76871776 92.40249343 408.30510164 88.03986454 423.35213184 C84.78444324 433.10526903 80.98550531 440.57628584 74.07111454 448.25447559 C73.55033329 448.87967091 73.02955204 449.50486622 72.49298954 450.14900684 C62.43893754 461.3963428 47.20541871 466.63355792 32.51252079 467.62947559 C16.24018829 468.28675289 2.51837405 463.32563976 -10.17888546 453.00447559 C-22.57652962 441.51082632 -29.77903644 425.70286519 -30.45696163 408.89387989 C-30.6896537 391.47498077 -24.73447037 376.99751684 -12.85466671 364.09041309 C-2.49434272 354.21343079 8.95555438 349.53770834 23.07111454 348.25447559 C23.07111454 238.03447559 23.07111454 127.81447559 23.07111454 14.25447559 C-8.48573432 13.43036992 -8.48573432 13.43036992 -34.92888546 26.25447559 C-35.56439327 26.75463184 -36.19990108 27.25478809 -36.85466671 27.77010059 C-44.36784927 34.36704138 -50.21222289 46.37885187 -51.11359771 56.28433483 C-51.18866813 58.57802419 -51.20096576 60.86385346 -51.19059849 63.15875626 C-51.19459497 64.03666401 -51.19859145 64.91457176 -51.20270904 65.81908277 C-51.2136824 68.76199537 -51.21048449 71.70471992 -51.20735836 74.64764881 C-51.21235392 76.77281882 -51.21822259 78.89798693 -51.22489071 81.02315235 C-51.24071727 86.87672715 -51.24409929 92.73025408 -51.24552968 98.58384769 C-51.24930198 104.98795145 -51.26462792 111.39202937 -51.27850056 117.79611778 C-51.30084081 128.81890128 -51.3161396 139.84167491 -51.32619381 150.8644762 C-51.34063027 166.66022855 -51.36746781 182.45593124 -51.39641476 198.25166798 C-51.45972886 236.23175401 -51.50574425 274.21186729 -51.55388546 312.19197559 C-51.67763546 397.02260059 -51.80138546 481.85322559 -51.92888546 569.25447559 C200.85111454 569.25447559 453.63111454 569.25447559 714.07111454 569.25447559 C714.07111454 547.14447559 714.07111454 525.03447559 714.07111454 502.25447559 C718.07111454 498.25447559 718.07111454 498.25447559 721.07111454 497.69197559 C724.07111454 498.25447559 724.07111454 498.25447559 726.23023319 500.37549305 C728.45328558 503.85215874 728.55657715 505.78023905 728.5252161 509.8806963 C728.52580021 510.52516209 728.52638432 511.16962788 728.52698612 511.83362293 C728.52421408 513.94972831 728.49316815 516.06439964 728.46173954 518.18025684 C728.45427391 519.65283915 728.4485825 521.12543142 728.44458866 522.59802723 C728.42935736 526.46326366 728.39009817 530.32789345 728.34577274 534.19289112 C728.30476536 538.14107019 728.28656604 542.08934782 728.26642704 546.03767872 C728.22360059 553.77688678 728.15538078 561.515596 728.07111454 569.25447559 C728.98924931 569.23352833 729.90738407 569.21258106 730.8533411 569.19099903 C734.26766882 569.12272976 737.68126897 569.07263175 741.09601688 569.03474903 C742.57237044 569.01466259 744.04864473 568.98738758 745.52472782 568.95271778 C747.64976416 568.90406375 749.77374688 568.88147886 751.89923954 568.86385059 C753.17702274 568.84290333 754.45480595 568.82195606 755.77130985 568.80037403 C759.07111454 569.25447559 759.07111454 569.25447559 761.48601627 570.71616077 C763.85016998 574.50202472 763.63795086 577.87474227 763.60456181 582.2581377 C763.61317738 583.16752598 763.62179295 584.07691425 763.63066959 585.01385975 C763.65337341 588.02013578 763.64658228 591.02548291 763.63752079 594.03181934 C763.64275464 596.12163032 763.64903024 598.21143892 763.65630436 600.30124378 C763.66671691 604.6818449 763.66213505 609.06212136 763.64753056 613.44270802 C763.63034694 619.05646243 763.65382877 624.66919296 763.68902016 630.2828331 C763.71098175 634.59886934 763.70955554 638.91466017 763.70125484 643.23073483 C763.70043455 645.30039117 763.7073129 647.3700654 763.72202587 649.43966961 C763.73944737 652.33422585 763.72494879 655.22693695 763.70221806 658.12141895 C763.71391026 658.97612782 763.72560246 659.83083668 763.73764896 660.71144581 C763.724995 661.50346897 763.71234104 662.29549213 763.69930363 663.111516 C763.69871732 663.79490008 763.69813101 664.47828417 763.69752693 665.18237686 C762.67053073 668.57955985 761.12562204 670.5527195 758.07111454 672.25447559 C753.4435149 673.03122746 748.8110526 672.92552886 744.13260746 672.8836813 C742.67184846 672.88889634 741.21109592 672.89630213 739.75035787 672.90570313 C735.71760626 672.92524752 731.68544985 672.91348594 727.65270749 672.89681336 C723.27255304 672.8841697 718.89249234 672.90041349 714.51235104 672.91303003 C706.82943711 672.9311244 699.1466987 672.93051878 691.46377659 672.91779423 C680.03926208 672.89892399 668.61489633 672.90852843 657.1903829 672.92383576 C636.78925847 672.9502018 616.38821219 672.9478677 595.98708028 672.9334412 C578.13404082 672.92087809 560.28103006 672.91757305 542.4279871 672.92355442 C540.65368086 672.92412731 540.65368086 672.92412731 538.84353004 672.92471177 C534.0422298 672.92626839 529.24092958 672.92786038 524.43962937 672.92951059 C479.37246942 672.9448158 434.30535933 672.93092212 389.23820707 672.9040261 C349.17271722 672.88029694 309.10730682 672.88242003 269.04181767 672.90633106 C224.05864905 672.93308703 179.07552452 672.94373049 134.09234905 672.92826974 C129.29964671 672.92666609 124.50694435 672.92510189 119.71424198 672.92355442 C118.53410109 672.92315903 117.35396019 672.92276365 116.13805746 672.92235628 C98.29344511 672.9166618 80.44886457 672.92333351 62.60425663 672.93595219 C42.32015503 672.95022415 22.036144 672.94672645 1.75205374 672.91954847 C-9.60919583 672.90482929 -20.97024939 672.9039627 -32.33149401 672.92277934 C-39.91080422 672.93395104 -47.48995655 672.92708683 -55.06924327 672.90525549 C-59.39411064 672.89330761 -63.71858726 672.88940514 -68.04344296 672.90728541 C-71.97367493 672.92336927 -75.9031675 672.9166759 -79.83334497 672.89138211 C-81.2503583 672.88632324 -82.66743208 672.88973738 -84.08439776 672.9024118 C-95.95717731 673.00112109 -95.95717731 673.00112109 -99.26089138 669.84465641 C-100.90111131 667.29760529 -101.55451863 666.09060761 -101.55707455 663.111516 C-101.57605549 661.92348125 -101.57605549 661.92348125 -101.59541988 660.71144581 C-101.58372768 659.85673695 -101.57203548 659.00202808 -101.55998898 658.12141895 C-101.56714428 657.21027836 -101.57429958 656.29913776 -101.58167171 655.36038685 C-101.59855382 652.354518 -101.57916033 649.35014145 -101.55779171 646.34431934 C-101.55862038 644.25354355 -101.56107968 642.16276782 -101.56510067 640.07199574 C-101.56795825 635.69308806 -101.5532597 631.31469199 -101.52580929 626.93587208 C-101.49170582 621.32101633 -101.49775228 615.70707418 -101.51647186 610.09217453 C-101.52703565 605.77617231 -101.51810997 601.46038301 -101.50308704 597.1444006 C-101.49790165 595.07393558 -101.49839135 593.00344836 -101.504632 590.93298626 C-101.51007744 588.04088279 -101.48973118 585.15009167 -101.46233273 582.2581377 C-101.4688586 581.40140461 -101.47538448 580.54467152 -101.48210812 579.66197681 C-101.46938366 578.87277348 -101.4566592 578.08357014 -101.44354916 577.27045155 C-101.43933877 576.24594096 -101.43933877 576.24594096 -101.43504333 575.20073318 C-100.6668493 572.24690484 -99.31512399 571.13333697 -96.92888546 569.25447559 C-93.62908077 568.80037403 -93.62908077 568.80037403 -89.75701046 568.86385059 C-88.73338406 568.87234028 -88.73338406 568.87234028 -87.68907833 568.88100147 C-85.51828784 568.90331923 -83.3491734 568.95350052 -81.17888546 569.00447559 C-79.70364896 569.02454684 -78.22838647 569.04279653 -76.75310421 569.05916309 C-73.14449045 569.10316679 -69.53685165 569.17215976 -65.92888546 569.25447559 C-65.93040434 568.1700673 -65.93192322 567.08565902 -65.93348813 565.96838987 C-66.00018349 518.16285448 -66.06189187 470.35731615 -66.09825802 422.55174732 C-66.09908636 421.46562427 -66.09908636 421.46562427 -66.09993144 420.35755934 C-66.11190387 404.62021382 -66.12298449 388.88286779 -66.13314678 373.14552101 C-66.138136 365.42760732 -66.14332223 357.70969377 -66.14861202 349.99178028 C-66.14913506 349.22376692 -66.14965809 348.45575356 -66.15019698 347.66446707 C-66.16723359 322.78387265 -66.19727226 297.90331463 -66.23407434 273.02274225 C-66.27183355 247.44856184 -66.29643392 221.87440157 -66.30454542 196.30019375 C-66.30569799 192.68562596 -66.30700054 189.07105823 -66.30839443 185.45649052 C-66.30866412 184.74511194 -66.30893382 184.03373337 -66.30921168 183.30079786 C-66.31393324 171.86286667 -66.33247113 160.42499785 -66.3562136 148.98709206 C-66.37980333 137.48005949 -66.38842404 125.97311279 -66.38289097 114.4660524 C-66.38032963 108.23452636 -66.38424958 102.00318296 -66.40570736 95.77168941 C-66.4252255 90.06168846 -66.42612109 84.35199237 -66.41248104 78.64197715 C-66.41079613 76.58117027 -66.41582536 74.52034408 -66.42841819 72.45957498 C-66.54221342 52.68013877 -63.02397978 34.24701038 -48.92888546 19.25447559 C-34.93603035 5.55754189 -19.48099387 -0.07983801 0 0 Z " fill="#000404" transform="translate(208.9288854598999,203.7455244064331)"/>
<path d="M0 0 C275.88 0 551.76 0 836 0 C836 24.75 836 49.5 836 75 C560.12 75 284.24 75 0 75 C0 50.25 0 25.5 0 0 Z " fill="#22D3EE" transform="translate(122,787)"/>
<path d="M0 0 C8.55334696 6.74912533 16.11440819 16.7988022 18.25 27.69921875 C19.83812564 42.14123625 17.27590974 55.19291163 8.5 66.97265625 C1.50519394 75.53886009 -7.84919256 81.81581439 -18.90625 83.71875 C-32.50809369 85.05025578 -43.86181552 84.10549523 -55.3125 75.72265625 C-63.78195722 68.49642211 -68.82838253 61.52669836 -72.5 50.97265625 C-72.933125 49.81765625 -73.36625 48.66265625 -73.8125 47.47265625 C-76.40428335 34.27812282 -73.28210306 21.8622532 -66.0390625 10.7265625 C-59.24186253 1.26473249 -48.32386353 -6.23388674 -36.8125 -8.70703125 C-23.29144249 -10.57988043 -11.26261685 -7.71030892 0 0 Z " fill="#21D1EC" transform="translate(896.5,563.02734375)"/>
<path d="M0 0 C0.86496094 -0.020625 1.72992188 -0.04125 2.62109375 -0.0625 C14.72502159 -0.13508727 25.41651924 4.71875591 34.203125 12.9296875 C42.90215353 22.22325396 47.43837958 33.55983885 47.875 46.25 C47.42765395 59.67038138 42.43410824 71.68835746 32.75 81 C20.50116982 91.45134678 8.28138977 93.16602842 -7.21386719 92.47216797 C-19.3190656 91.3567639 -29.22885551 82.5815337 -36.83203125 73.71875 C-45.18675851 62.21507325 -45.88985557 48.9771578 -44.625 35.25 C-41.79616554 23.35113579 -33.40215302 13.32841204 -23.625 6.25 C-15.59415535 1.91162146 -9.03235611 0.05243748 0 0 Z " fill="#21D1EC" transform="translate(237.625,564.75)"/>
<path d="M0 0 C1.29067383 -0.0309375 1.29067383 -0.0309375 2.60742188 -0.0625 C15.00499762 -0.13724047 25.21443621 5.09524784 34.125 13.5625 C43.53865934 23.45763398 47.76895154 35.79849661 47.65625 49.30859375 C46.78233892 59.32877869 43.22658998 68.84204645 36.3125 76.25 C35.75046875 76.91257812 35.1884375 77.57515625 34.609375 78.2578125 C27.87297681 85.70181554 18.39335534 91.73092543 8.21069336 92.38500977 C-11.41955532 93.22622091 -11.41955532 93.22622091 -19.6875 88.25 C-20.44933594 87.81429687 -21.21117187 87.37859375 -21.99609375 86.9296875 C-33.78028261 79.65647819 -41.16393064 69.36549758 -45.125 56.125 C-47.01936489 43.07493077 -45.07324826 30.3799123 -37.6875 19.25 C-27.6015911 6.93224302 -15.9586934 0.0935308 0 0 Z " fill="#21D1EC" transform="translate(689.6875,564.75)"/>
<path d="M0 0 C2.01361047 1.42407433 3.83953864 2.93790362 5.6796875 4.578125 C6.27136719 5.05507813 6.86304688 5.53203125 7.47265625 6.0234375 C13.75282194 11.54111066 20.05901631 22.22114538 20.88842773 30.71606445 C21.51376896 46.21810513 20.80803997 57.77263753 10.3046875 70.078125 C8.7950381 71.61034391 7.25514373 73.11365452 5.6796875 74.578125 C5.05320312 75.16207031 4.42671875 75.74601563 3.78125 76.34765625 C-7.11788493 85.43026869 -19.46519303 86.78200621 -33.10302734 85.80419922 C-44.49509617 84.64266478 -53.87400354 77.38172727 -61.5234375 69.23046875 C-69.85100215 58.3865313 -72.89193097 45.01766613 -71.3203125 31.578125 C-69.61849346 23.56341298 -66.28481787 17.04439325 -61.3203125 10.578125 C-60.70285156 9.753125 -60.08539063 8.928125 -59.44921875 8.078125 C-44.64646168 -9.30492917 -18.95580799 -11.61601701 0 0 Z " fill="#21D1EC" transform="translate(414.3203125,571.421875)"/>
<path d="M0 0 C9.38150426 8.22804062 16.86503335 19.11318686 17.8359375 31.83203125 C18.30175395 45.42966633 16.16737104 57.51243973 6.77734375 68.0390625 C-3.48335071 78.2816605 -14.11484206 83.67599645 -28.6875 83.75 C-42.05667239 83.47266597 -52.42408618 79.09846625 -62.3125 69.875 C-65.85110529 66.06614324 -68.28663935 61.9670599 -70.4375 57.25 C-70.83195312 56.38890625 -71.22640625 55.5278125 -71.6328125 54.640625 C-75.94090002 43.73483702 -76.29036327 31.2594213 -72.375 20.1875 C-66.31342949 6.65112766 -56.02313757 -2.16583449 -42.4375 -7.75 C-27.99113537 -11.71187926 -11.9008806 -8.94803053 0 0 Z " fill="#21D2EC" transform="translate(568.4375,573.75)"/>
<path d="M0 0 C1.875 1.0625 1.875 1.0625 3 3 C3.5 6.375 3.5 6.375 3 10 C1.35493422 12.19342104 0.13396572 13.3776014 -2 15 C-2.64710938 15.52207031 -3.29421875 16.04414062 -3.9609375 16.58203125 C-13.51325768 23.80332449 -29.64316845 33.6018115 -42 32 C-44.5 29.8125 -44.5 29.8125 -46 27 C-46.0625 24.4375 -46.0625 24.4375 -45 22 C-41.25036609 18.45945348 -37.3762939 16.88507587 -32.5625 15.3125 C-23.37926856 12.10857731 -15.41494045 7.29925112 -7.80078125 1.25390625 C-5.13085875 -0.6051938 -3.16453334 -0.40398298 0 0 Z " fill="#000405" transform="translate(933,663)"/>
<path d="M0 0 C10.38490296 11.03188573 18.54054468 28.84026993 18.56640625 44.046875 C17.76298877 46.81728011 16.47725517 47.61344363 14 49 C10.375 48.875 10.375 48.875 7 48 C4.69380745 44.54071117 3.8660932 41.1452395 2.8125 37.1875 C0.22362301 27.90886949 -3.47260289 19.45944871 -8.71875 11.33984375 C-10.58451314 7.9325507 -9.96967355 5.67090701 -9 2 C-5.47427193 -0.35048538 -4.14986355 -0.66397817 0 0 Z " fill="#000404" transform="translate(948,542)"/>
<path d="M0 0 C3.375 0.9375 3.375 0.9375 5.375 3.9375 C7.33124728 15.3110307 2.27818419 27.33555323 -2.125 37.625 C-2.40931885 38.29611816 -2.6936377 38.96723633 -2.98657227 39.65869141 C-4.67794801 43.43839351 -6.34748976 46.36276973 -9.625 48.9375 C-13.1875 49.4375 -13.1875 49.4375 -16.625 48.9375 C-18.625 47.375 -18.625 47.375 -19.625 44.9375 C-19.21499447 39.80621868 -17.88981889 35.782566 -15.75 31.125 C-12.44554071 23.71845332 -10.05109009 16.55756665 -8.6875 8.5625 C-8.09629677 5.53496734 -7.6056456 3.90667633 -5.9375 1.25 C-3.625 -0.0625 -3.625 -0.0625 0 0 Z " fill="#000506" transform="translate(961.625,604.0625)"/>
<path d="M0 0 C0.76836182 0.25958496 1.53672363 0.51916992 2.32836914 0.78662109 C7.69277644 2.67474221 12.78187262 4.91273747 17.8125 7.5625 C18.74280029 8.04891968 18.74280029 8.04891968 19.69189453 8.54516602 C23.03098857 10.39070117 25.49958773 12.07120243 27.375 15.4375 C27.30357348 18.93739972 27.03521066 20.73013143 24.625 23.3125 C21.84734601 24.70132699 20.46797287 24.77483557 17.375 24.4375 C14.3515625 22.86328125 14.3515625 22.86328125 11 20.75 C2.39369087 15.54291813 -6.61640257 12.51469906 -16.4375 10.3125 C-19.625 9.4375 -19.625 9.4375 -21.625 6.4375 C-22.2777027 0.34560811 -22.2777027 0.34560811 -20.1875 -2.5625 C-13.8759572 -5.02554109 -6.15070168 -2.09609889 0 0 Z " fill="#000304" transform="translate(900.625,507.5625)"/>
</svg>
