<?xml version="1.0" encoding="UTF-8"?>
<svg version="1.1" xmlns="http://www.w3.org/2000/svg" width="500" height="500">
<path d="M0 0 C165 0 330 0 500 0 C500 165 500 330 500 500 C335 500 170 500 0 500 C0 335 0 170 0 0 Z " fill="#22D3EE" transform="translate(0,0)"/>
<path d="M0 0 C1.78804086 -0.00542647 3.57607724 -0.01255207 5.36410522 -0.02124023 C10.20097866 -0.03941538 15.03750933 -0.03242976 19.87438846 -0.01972389 C24.94793004 -0.00956449 30.02144317 -0.01899787 35.09498596 -0.02526855 C43.61464684 -0.03253707 52.13416883 -0.02297884 60.65380859 -0.00390625 C70.48720325 0.01785394 80.32026601 0.01081407 90.15365261 -0.01121187 C98.61254787 -0.0293969 107.07134354 -0.03190883 115.53025204 -0.0214572 C120.57524587 -0.01523841 125.620084 -0.01434191 130.66506767 -0.02760315 C135.41028022 -0.03920599 140.15506735 -0.03105527 144.90023422 -0.00802612 C146.63598361 -0.00276234 148.37176915 -0.00421262 150.10750389 -0.01307678 C164.73136145 -0.08084097 175.12470282 2.57559044 186.33813477 12.51757812 C193.62839249 20.89458234 196.99017042 30.70252077 196.72875977 41.68164062 C196.72309998 42.59972504 196.71744019 43.51780945 196.71160889 44.4637146 C196.68945952 47.35723042 196.63930648 50.24944524 196.58813477 53.14257812 C196.56804194 55.12042465 196.54979609 57.09829086 196.53344727 59.07617188 C196.48966551 63.8904649 196.42079107 68.70380201 196.33813477 73.51757812 C197.39809914 73.50425446 197.39809914 73.50425446 198.47947693 73.49066162 C205.17244081 73.41017123 211.8652676 73.34944015 218.55860806 73.31032944 C221.99891926 73.28954535 225.43882711 73.26139923 228.87890625 73.21582031 C232.84312948 73.16363166 236.80719525 73.14455692 240.77172852 73.12695312 C242.60506996 73.09598541 242.60506996 73.09598541 244.47544861 73.06439209 C254.34416087 73.06182293 261.69069765 75.50548743 269.47875977 81.61132812 C276.84605951 89.16435812 278.48766294 97.86220642 278.48530579 107.98600769 C278.48898247 108.8366866 278.49265916 109.68736551 278.49644727 110.56382257 C278.50745695 113.41324137 278.51132332 116.26262368 278.51513672 119.11206055 C278.52140339 121.15566116 278.52805037 123.19926065 278.53504944 125.24285889 C278.55606687 131.95291351 278.5664492 138.66296831 278.57641602 145.37304688 C278.58046434 147.68490422 278.58458129 149.99676144 278.5887661 152.30861855 C278.60781213 163.16994545 278.62204479 174.03126557 278.63037807 184.89260596 C278.64015069 197.42233787 278.66647348 209.95189313 278.70687896 222.48156279 C278.73705358 232.17176245 278.7518482 241.8619115 278.75515908 251.55215722 C278.75750787 257.33723659 278.76644648 263.1221271 278.79162025 268.90715599 C278.81492958 274.35155144 278.81912256 279.79563407 278.80885887 285.24006653 C278.80836411 287.23383946 278.81466677 289.22762794 278.82841492 291.22135353 C278.91675733 304.79639742 278.40794247 315.20378587 268.62329102 325.53710938 C262.26821224 331.04484432 254.98285688 333.60778411 246.63676453 333.67579651 C245.72116257 333.68558533 244.80556061 333.69537415 243.86221313 333.70545959 C242.87030975 333.71121506 241.87840637 333.71697052 240.85644531 333.72290039 C239.80232956 333.73279999 238.74821381 333.74269958 237.66215515 333.75289917 C234.18307734 333.78444923 230.70398588 333.80924601 227.22485352 333.83398438 C224.81060942 333.8545595 222.39636888 333.87555612 219.98213196 333.8969574 C213.63148888 333.95212032 207.28081361 334.00155513 200.93011475 334.04980469 C194.44825377 334.10006188 187.96643948 334.15572594 181.48461914 334.2109375 C168.76916451 334.3184484 156.05367 334.42009271 143.33813477 334.51757812 C144.2541748 335.32259766 145.17021484 336.12761719 146.11401367 336.95703125 C146.62928619 337.40985474 147.14455872 337.86267822 147.67544556 338.32922363 C150.45396804 340.31508464 153.38308108 340.550684 156.71313477 341.01757812 C165.81048881 342.5384225 171.19335664 345.66454482 177.11157227 352.67382812 C181.19963271 358.81893809 181.15166216 365.37379067 180.33813477 372.51757812 C178.18842388 378.99550156 174.00869062 383.82480784 168.33813477 387.51757812 C161.49306448 390.73030596 154.81655046 390.95258258 147.36767578 390.92163086 C145.61952576 390.93192574 145.61952576 390.93192574 143.83605957 390.94242859 C140.0045942 390.96064792 136.17354018 390.95686591 132.34204102 390.95117188 C130.3430447 390.95458117 128.34404819 390.95799916 126.34505409 390.96252495 C120.06723074 390.97653056 113.78954358 390.97504205 107.51171875 390.96362305 C101.05923816 390.95214491 94.60717337 390.96622104 88.15474755 390.99301952 C82.59179358 391.01524921 77.02896945 391.02179766 71.46597427 391.01594311 C68.15355111 391.01258967 64.84145138 391.01661433 61.52905464 391.03219414 C57.83172133 391.0471359 54.135294 391.0364022 50.43798828 391.01928711 C49.35664108 391.02895508 48.27529388 391.03862305 47.16117859 391.04858398 C39.30460505 390.97275103 32.19246223 389.61357449 25.93579102 384.58789062 C19.58046674 376.53457894 17.36525468 370.91780322 18.33813477 360.51757812 C19.71424606 353.19071529 24.13595406 348.42469021 30.15063477 344.26367188 C35.03683503 341.50500464 39.97542119 340.75254734 45.50610352 340.10742188 C49.62729287 339.24907761 52.38370182 337.47201107 55.33813477 334.51757812 C54.79074961 334.51518977 54.24336445 334.51280142 53.67939186 334.51034069 C40.3234374 334.45105031 26.96766344 334.37522541 13.61190224 334.28186321 C7.15298342 334.23720688 0.69412699 334.19794009 -5.76489258 334.17114258 C-12.00253711 334.14506269 -18.23994094 334.10462658 -24.47743607 334.05439186 C-26.8527285 334.03775492 -29.22806254 334.02622095 -31.603405 334.01996422 C-34.94004071 334.01028884 -38.276065 333.98218742 -41.61254883 333.94995117 C-42.58647583 333.95138626 -43.56040283 333.95282135 -44.56384277 333.95429993 C-54.65338963 333.8171643 -63.23071361 331.59714838 -70.66186523 324.51757812 C-77.43201571 317.10265141 -80.12481871 309.51955517 -80.04954529 299.60572815 C-80.05493083 298.74361329 -80.06031636 297.88149844 -80.0658651 296.99325889 C-80.08009895 294.12304353 -80.0730523 291.25329234 -80.06591797 288.38305664 C-80.07162391 286.31768424 -80.07858904 284.25231498 -80.0867157 282.18695068 C-80.10463701 276.58984559 -80.10348066 270.99289737 -80.09777331 265.39577222 C-80.09468011 260.71881991 -80.10077536 256.04189767 -80.10681206 251.36494964 C-80.1208522 240.32978141 -80.11930011 229.29469061 -80.10791016 218.25952148 C-80.09642813 206.8839311 -80.11050732 195.50857645 -80.13730663 184.13301712 C-80.15947339 174.35698303 -80.16609883 164.58102288 -80.16023022 154.80496544 C-80.15686196 148.97024161 -80.15926725 143.1356689 -80.17648125 137.30096626 C-80.19196382 131.81382489 -80.18798 126.32703244 -80.1691761 120.83990479 C-80.16549395 118.82959497 -80.16858773 116.81925922 -80.17906189 114.80897331 C-80.19229906 112.05771972 -80.1807003 109.30761665 -80.16307068 106.55641174 C-80.17267569 105.76709418 -80.18228069 104.97777662 -80.19217676 104.16454035 C-80.0751192 95.24316358 -75.93093231 86.82640673 -69.66186523 80.51757812 C-63.58686581 76.15798415 -58.45608585 73.38795292 -50.90527344 73.40405273 C-49.13377678 73.40416603 -49.13377678 73.40416603 -47.32649231 73.40428162 C-46.05142319 73.4094429 -44.77635406 73.41460419 -43.46264648 73.41992188 C-41.50466377 73.4220443 -41.50466377 73.4220443 -39.50712585 73.42420959 C-36.03996867 73.42802432 -32.5728535 73.43784569 -29.10571289 73.44891357 C-25.56649341 73.45915015 -22.02726713 73.46371203 -18.48803711 73.46875 C-11.54596084 73.4794689 -4.60391938 73.49705725 2.33813477 73.51757812 C2.00813477 68.23757812 1.67813477 62.95757812 1.33813477 57.51757812 C-2.49038086 57.47890625 -2.49038086 57.47890625 -6.39624023 57.43945312 C-8.87193771 57.40102508 -11.34742744 57.35586751 -13.82299805 57.31005859 C-15.54164692 57.28185745 -17.26042529 57.26063859 -18.97924805 57.24658203 C-21.45225271 57.22513979 -23.92370198 57.17848657 -26.39624023 57.12695312 C-27.16305115 57.12572449 -27.92986206 57.12449585 -28.71990967 57.12322998 C-32.07887616 57.03129484 -34.29999621 56.75265235 -37.14306641 54.90576172 C-39.1770202 51.70754021 -39.19440783 49.4774533 -39.22827148 45.69726562 C-39.23756935 44.70921432 -39.23756935 44.70921432 -39.24705505 43.70120239 C-39.25414495 42.3076525 -39.25099341 40.91401776 -39.23828125 39.52050781 C-39.22453751 37.41892144 -39.25833285 35.32190488 -39.29663086 33.22070312 C-39.35613663 22.91549636 -37.40374987 15.35553553 -30.41186523 7.64257812 C-21.29556858 -0.38286839 -11.54152688 -0.05886585 0 0 Z " fill="#FBFEFE" transform="translate(146.661865234375,51.482421875)"/>
<path d="M0 0 C19.02820901 -0.09351907 38.05637126 -0.16401629 57.08476257 -0.20724869 C65.92035615 -0.22785748 74.75580678 -0.25594581 83.59130859 -0.30175781 C91.2940226 -0.34167722 98.99663305 -0.36744505 106.69944763 -0.37635398 C110.77654849 -0.38156012 114.85335314 -0.39376106 118.93035889 -0.42292023 C122.77172449 -0.4501702 126.61267327 -0.45842582 130.45412636 -0.45243073 C131.8601642 -0.4535267 133.26621669 -0.46142372 134.67217064 -0.4768219 C144.15502816 -0.57554177 150.38223753 0.01193241 157.75 6.375 C161.91853854 11.23829497 165.12654877 15.4803423 165.12304783 22.02360821 C165.12503888 22.84469592 165.12702993 23.66578363 165.12908131 24.51175278 C165.12616847 25.41349616 165.12325563 26.31523954 165.12025452 27.24430847 C165.12153615 28.68148026 165.12153615 28.68148026 165.12284368 30.14768583 C165.12449652 33.37215762 165.11898028 36.59657789 165.11352539 39.82104492 C165.11324345 42.12687682 165.11340139 44.43270881 165.1139679 46.73854065 C165.1142556 53.01089806 165.10836314 59.28323646 165.10139394 65.55558944 C165.095156 72.10593174 165.09455625 78.65627445 165.09336853 85.20661926 C165.09077701 96.20505097 165.08435799 107.203476 165.07543945 118.2019043 C165.06626232 129.5310055 165.05918296 140.86010481 165.05493164 152.18920898 C165.05466892 152.88737778 165.05440619 153.58554657 165.05413551 154.304872 C165.05283048 157.80733276 165.05156677 161.30979353 165.05032361 164.81225431 C165.03995463 193.87484076 165.02226521 222.93742028 165 252 C160.05 252 155.1 252 150 252 C152 246 152 246 153.5625 242.5 C157.88347148 231.97937378 157.2703664 219.22661568 153.26953125 208.72265625 C147.67846811 196.73197621 138.3703318 188.13755886 126.37109375 182.76171875 C115.9868279 179.42575196 102.62660296 179.36361826 92.5234375 183.671875 C79.34878705 190.60590155 71.58159192 199.25008005 66.18359375 213.09375 C62.62594256 224.83648678 64.99162099 237.38412081 70.1953125 248.15234375 C71 250 71 250 71 252 C48.56 252 26.12 252 3 252 C2.98018066 244.61488037 2.96036133 237.22976074 2.93994141 229.62084961 C2.87512632 205.98813674 2.80059327 182.35546478 2.71994839 158.72280109 C2.7074296 155.05161048 2.69499681 151.38041959 2.68261719 147.70922852 C2.68015119 146.97836407 2.6776852 146.24749962 2.67514448 145.49448777 C2.63542666 133.66225248 2.60267499 121.83000765 2.57250018 109.99774461 C2.54138021 97.85569891 2.50276846 85.71369368 2.45720994 73.57169348 C2.42933647 66.08014251 2.40729849 58.58862112 2.39273749 51.09703226 C2.38094377 45.35134875 2.35872393 39.60574198 2.33261681 33.86010742 C2.32354229 31.50388716 2.31785109 29.14765109 2.31578636 26.79141426 C2.31246302 23.57514084 2.29698311 20.35914577 2.2784729 17.14292908 C2.28040763 16.21003663 2.28234237 15.27714419 2.28433573 14.31598228 C2.23995653 9.15983766 1.67475413 4.8849783 0 0 Z " fill="#23D3EE" transform="translate(162,68)"/>
<path d="M0 0 C1.81843918 0.00848969 1.81843918 0.00848969 3.6736145 0.01715088 C7.53541999 0.03949342 11.39628868 0.08968902 15.2578125 0.140625 C17.88019491 0.1606926 20.5025919 0.17894291 23.125 0.1953125 C29.54458902 0.23935149 35.96363382 0.30624395 42.3828125 0.390625 C42.3828125 3.030625 42.3828125 5.670625 42.3828125 8.390625 C41.43773834 8.39609344 41.43773834 8.39609344 40.47357178 8.40167236 C33.91966786 8.44346212 27.36646655 8.51278299 20.81298828 8.59814453 C18.36677068 8.62638135 15.92046138 8.64758231 13.47412109 8.66162109 C9.95883136 8.68301231 6.44464738 8.72964538 2.9296875 8.78125 C1.2873111 8.78309296 1.2873111 8.78309296 -0.38824463 8.78497314 C-1.91937897 8.81455109 -1.91937897 8.81455109 -3.48144531 8.84472656 C-4.37857239 8.85360901 -5.27569946 8.86249146 -6.20001221 8.87164307 C-9.50699177 9.58167128 -10.54638113 10.72678644 -12.6171875 13.390625 C-13.21759409 16.75551465 -13.21759409 16.75551465 -13.11839294 20.60902405 C-13.12392734 21.33719737 -13.12946174 22.06537069 -13.13516384 22.81560987 C-13.14878091 25.25640771 -13.13379635 27.69618484 -13.11889648 30.13696289 C-13.12267926 31.88636205 -13.12817896 33.63575822 -13.13526917 35.38514709 C-13.14924545 40.13715329 -13.13803925 44.88879831 -13.12155795 49.6407845 C-13.10772287 54.60951994 -13.11416569 59.57823408 -13.11769104 64.54698181 C-13.12039413 72.8905114 -13.10690818 81.2338972 -13.08374023 89.57739258 C-13.05712117 99.23071312 -13.0553858 108.88379337 -13.0671286 118.53713804 C-13.07789796 127.81590676 -13.0717265 137.09458835 -13.05757332 146.37335014 C-13.05180707 150.32586152 -13.05190118 154.27830928 -13.05663872 158.23082161 C-13.06140196 162.88232535 -13.05133403 167.53356505 -13.02968407 172.18501854 C-13.02410742 173.89467605 -13.02365892 175.60435889 -13.02863693 177.31401825 C-13.03456836 179.64271089 -13.02212689 181.97059036 -13.00486755 184.29920959 C-13.00122271 186.25621843 -13.00122271 186.25621843 -12.99750423 188.25276279 C-12.8845054 191.30526167 -12.8845054 191.30526167 -11.40764046 193.06314617 C-9.0232851 194.83095652 -7.54502999 194.76655784 -4.58962345 194.76814842 C-3.54458182 194.77597166 -2.4995402 194.78379491 -1.42283064 194.79185522 C-0.2709041 194.78516305 0.88102243 194.77847089 2.06785583 194.77157593 C3.288579 194.7762559 4.50930217 194.78093587 5.76701695 194.78575766 C9.1617621 194.79567719 12.55601171 194.79207507 15.95072711 194.78279901 C19.60928941 194.77602901 23.26780748 194.78647958 26.92636108 194.79473877 C34.09623043 194.80810068 41.26600573 194.80518735 48.43587881 194.79650085 C54.2619638 194.78973382 60.08802239 194.78880332 65.91411018 194.7920723 C66.74238183 194.792532 67.57065348 194.79299169 68.42402427 194.79346532 C70.10649975 194.79442447 71.78897523 194.79539711 73.47145069 194.7963831 C89.26010209 194.80494433 105.04870128 194.79509166 120.83734412 194.778982 C134.39134476 194.76558063 147.94526833 194.76790399 161.49926758 194.78173828 C177.22872995 194.79778544 192.95814652 194.80411767 208.68761593 194.79490149 C210.3643103 194.79394582 212.04100467 194.79300271 213.71769905 194.7920723 C214.54272021 194.79160947 215.36774137 194.79114664 216.21776317 194.79066979 C222.03785565 194.78807712 227.85791914 194.79245691 233.67800713 194.79951096 C240.76941317 194.80791668 247.86071956 194.80566553 254.95211416 194.78966872 C258.57183763 194.78177305 262.19139485 194.77871627 265.81111717 194.78861618 C269.73110107 194.79917529 273.65081148 194.78658503 277.57078552 194.77157593 C278.72048134 194.77826809 279.87017715 194.78496026 281.05471224 194.79185522 C282.6261863 194.78012035 282.6261863 194.78012035 284.22940731 194.76814842 C285.13455324 194.76766137 286.03969917 194.76717431 286.97227377 194.76667249 C289.9000321 194.309938 291.27507505 193.453349 293.3828125 191.390625 C293.98711539 188.12865894 293.98711539 188.12865894 293.88401794 184.29248047 C293.88955234 183.56516157 293.89508674 182.83784267 293.90078884 182.08848381 C293.91443243 179.644582 293.89940698 177.20169495 293.88452148 174.7578125 C293.88830333 173.00856084 293.89380227 171.25931217 293.90089417 169.5100708 C293.91488362 164.75387359 293.90365461 159.99803672 293.88718295 155.24185944 C293.8733578 150.2704488 293.87978963 145.29905963 293.88331604 140.32763672 C293.88602017 131.97813085 293.8725251 123.62876858 293.84936523 115.27929688 C293.82275423 105.61861275 293.82100764 95.95816877 293.8327536 86.29746056 C293.84352334 77.0138885 293.83735063 67.73040352 293.82319832 58.44683838 C293.81743153 54.49153593 293.81752663 50.53629706 293.82226372 46.58099365 C293.82702717 41.92539938 293.81695814 37.27006891 293.79530907 32.61452484 C293.78973238 30.90325561 293.78928395 29.19196108 293.79426193 27.48069 C293.80019339 25.14975461 293.78775176 22.81963159 293.77049255 20.48876953 C293.76806266 19.18279816 293.76563276 17.87682678 293.76312923 16.53128052 C293.65052344 13.42577917 293.65052344 13.42577917 291.9835825 11.50949097 C289.04093248 9.45271144 287.11995276 9.24781088 283.56591797 9.18530273 C282.56503143 9.16535751 281.5641449 9.14541229 280.53292847 9.12486267 C279.44956207 9.10815018 278.36619568 9.09143768 277.25 9.07421875 C276.14302765 9.05343765 275.0360553 9.03265656 273.89553833 9.01124573 C270.34969451 8.94571509 266.80377496 8.88684886 263.2578125 8.828125 C260.858065 8.78494313 258.45832523 8.74132895 256.05859375 8.69726562 C250.16674737 8.59003012 244.27482519 8.48827028 238.3828125 8.390625 C238.3828125 5.750625 238.3828125 3.110625 238.3828125 0.390625 C245.94495129 0.28900147 253.5069132 0.21906522 261.06958008 0.17089844 C263.64093609 0.15081351 266.21224659 0.12354021 268.78344727 0.08886719 C272.48465216 0.04021419 276.18525183 0.01762417 279.88671875 0 C281.60430138 -0.03096771 281.60430138 -0.03096771 283.35658264 -0.06256104 C289.90994026 -0.0643933 294.21418293 0.18975873 299.3828125 4.390625 C303.08332669 9.74388658 303.96610944 13.53324865 303.8974762 19.96116638 C303.90442172 20.79863106 303.91136725 21.63609574 303.91852325 22.49893814 C303.93675001 25.29180312 303.92654112 28.08381449 303.91625977 30.87670898 C303.92332042 32.88444655 303.93206606 34.89217879 303.94236755 36.89990234 C303.96485469 42.34415358 303.96192331 47.78811401 303.95304608 53.23239398 C303.94793323 57.78016189 303.9552312 62.3278753 303.96251816 66.87563759 C303.97951504 77.60537268 303.97595338 88.33496554 303.95922852 99.06469727 C303.94230578 110.12849117 303.9581445 121.19189058 303.9904514 132.2556414 C304.01715388 141.7607418 304.02442154 151.26571944 304.01593632 160.77085358 C304.01100926 166.44518385 304.01321103 172.11927675 304.03372383 177.79357719 C304.05209117 183.12975775 304.04610895 188.46537115 304.02152443 193.8015213 C304.01652 195.75742116 304.01999671 197.71336432 304.03267288 199.66922951 C304.04863709 202.34450198 304.03362166 205.01791446 304.01100159 207.69309998 C304.02283732 208.46266681 304.03467304 209.23223364 304.04686743 210.02512068 C303.94677957 215.87235136 302.22431845 219.96080579 298.3828125 224.390625 C292.3856009 229.24990145 286.62477043 228.95677066 279.12304688 228.89855957 C277.88877205 228.90479953 276.65449722 228.9110395 275.38282013 228.91746855 C271.96856215 228.93063972 268.55518743 228.92593163 265.14098358 228.91352367 C261.45447285 228.90446155 257.76803846 228.91844865 254.08154297 228.92944336 C246.86440189 228.94722082 239.64742731 228.94339209 232.43027973 228.9317928 C226.5642644 228.92275569 220.69829569 228.92153567 214.83227539 228.92588806 C213.99708579 228.92650099 213.16189618 228.92711393 212.3013978 228.92774543 C210.60467464 228.92902435 208.9079515 228.9303212 207.21122837 228.9316358 C191.30466029 228.94303933 175.39818446 228.92993146 159.49163151 228.90843433 C145.84593731 228.89056355 132.20037924 228.89366772 118.5546875 228.91210938 C102.70466623 228.9335201 86.85472579 228.94194071 71.00469208 228.92966032 C69.3142446 228.92838614 67.62379711 228.92712865 65.93334961 228.92588806 C65.10163821 228.92527096 64.26992681 228.92465386 63.41301203 228.92401806 C57.55469986 228.92056576 51.69643899 228.9263909 45.83813477 228.93580627 C38.69784212 228.94702989 31.55772534 228.94397865 24.41745281 228.9226833 C20.77500925 228.91217766 17.13285881 228.90804248 13.49041748 228.92127991 C9.54097228 228.93541587 5.59200606 228.91852618 1.64257812 228.89855957 C-0.08227436 228.9119439 -0.08227436 228.9119439 -1.84197235 228.92559862 C-8.31241611 228.86202218 -12.51417199 228.52537374 -17.6171875 224.390625 C-22.15386204 219.15917455 -23.34981288 214.48361632 -23.24537659 207.69309998 C-23.25247097 206.8540753 -23.25956536 206.01505063 -23.26687473 205.15060097 C-23.28438115 202.35830718 -23.26638804 199.56741902 -23.24829102 196.77514648 C-23.25343261 194.76563893 -23.26071569 192.75613588 -23.26997375 190.74664307 C-23.28846404 185.30243514 -23.27556439 179.85871792 -23.25588346 174.41453052 C-23.23947847 168.71230689 -23.24831233 163.01011389 -23.25340271 157.30787659 C-23.25792121 147.73389868 -23.24206786 138.16011631 -23.21411133 128.58618164 C-23.1820515 117.52181566 -23.18207958 106.45780213 -23.1993261 95.3934111 C-23.21519575 84.74241881 -23.20845535 74.09155558 -23.19138908 63.44056892 C-23.18452157 58.91080344 -23.18554798 54.3811415 -23.19293404 49.85137749 C-23.20060137 44.51687123 -23.18845577 39.1827656 -23.16108513 33.84832764 C-23.15420532 31.89201611 -23.15409898 29.93566714 -23.16130066 27.97935677 C-23.17000659 25.30618126 -23.15402037 22.63423895 -23.1318512 19.96116638 C-23.14009196 19.18936883 -23.14833273 18.41757128 -23.15682322 17.62238592 C-23.05574814 11.00676014 -20.95676926 6.68425981 -16.15576172 1.97753906 C-10.80957508 -0.42001945 -5.79074266 -0.10199787 0 0 Z " fill="#29D4EE" transform="translate(105.6171875,140.609375)"/>
<path d="M0 0 C2.15622571 0.00097226 4.30888763 -0.04066043 6.46459961 -0.08496094 C7.84284744 -0.09016879 9.22110757 -0.09285612 10.59936523 -0.09277344 C11.84645264 -0.09986328 13.09354004 -0.10695313 14.37841797 -0.11425781 C18.71754688 0.68266696 19.98365168 2.0924889 22.72827148 5.50097656 C23.35646057 8.72607422 23.35646057 8.72607422 23.359375 12.41503906 C23.3665303 13.09048767 23.37368561 13.76593628 23.38105774 14.46185303 C23.3979007 16.68392574 23.37857187 18.90396801 23.35717773 21.12597656 C23.35800686 22.67627122 23.36046788 24.22656579 23.36448669 25.77685547 C23.36734164 29.02175441 23.35267438 32.26596194 23.32519531 35.51074219 C23.29111204 39.66381388 23.29713305 43.81564965 23.31585789 47.96878052 C23.32644182 51.1688054 23.31747762 54.36854418 23.30247307 57.56854248 C23.29730095 59.099499 23.29776128 60.63048552 23.30401802 62.16143799 C23.30948752 64.30391358 23.28904419 66.44463821 23.26171875 68.58691406 C23.25552017 69.80427246 23.24932159 71.02163086 23.24293518 72.27587891 C22.63205842 76.10388779 21.41767593 77.76179776 18.72827148 80.50097656 C16.44996581 81.6401294 15.18045948 81.63360458 12.64909363 81.64814758 C11.79532639 81.65530289 10.94155914 81.66245819 10.06192017 81.66983032 C9.12319061 81.67251923 8.18446106 81.67520813 7.21728516 81.67797852 C6.23016037 81.68454971 5.24303558 81.69112091 4.22599792 81.69789124 C0.94941132 81.71765114 -2.32712942 81.72929243 -5.60375977 81.73925781 C-6.72100622 81.74333334 -7.83825268 81.74740887 -8.98935509 81.75160789 C-14.90191845 81.77247946 -20.81445852 81.78677686 -26.72705078 81.79614258 C-32.84061458 81.80721327 -38.95381502 81.84161801 -45.06725025 81.88131428 C-49.76239204 81.90743208 -54.4574466 81.91583009 -59.15265465 81.91942406 C-61.40653629 81.924302 -63.66041373 81.93595011 -65.91422462 81.95446205 C-69.06729737 81.97875159 -72.21942137 81.97790692 -75.37255859 81.97094727 C-76.30521545 81.98375732 -77.23787231 81.99656738 -78.1987915 82.00976562 C-82.42381485 81.97574002 -84.67020256 81.87579843 -88.32792664 79.59660339 C-91.06315635 76.6477325 -91.40144516 75.04774899 -91.46459961 71.13061523 C-91.48066254 70.22595016 -91.49672546 69.3212851 -91.51327515 68.38920593 C-91.55771713 64.24995656 -91.59878955 60.11086769 -91.62182617 55.97143555 C-91.63838782 53.78805891 -91.6656804 51.60473653 -91.70385742 49.42163086 C-91.75861296 46.27461606 -91.78049841 43.12887226 -91.79516602 39.98144531 C-91.81783539 39.007332 -91.84050476 38.03321869 -91.86386108 37.02958679 C-91.84955787 32.44196935 -91.76739822 30.1958589 -89.04296875 26.37646484 C-86.11706128 24.39630264 -84.87891123 23.90074486 -81.40844727 24.01269531 C-80.07910156 24.03686523 -80.07910156 24.03686523 -78.72290039 24.06152344 C-77.81088867 24.10341797 -76.89887695 24.1453125 -75.95922852 24.18847656 C-75.02788086 24.21103516 -74.0965332 24.23359375 -73.13696289 24.25683594 C-70.84688891 24.31555578 -68.56014977 24.39760799 -66.27172852 24.50097656 C-66.16860352 23.73785156 -66.06547852 22.97472656 -65.95922852 22.18847656 C-65.19861593 19.21517282 -64.66178137 18.34648575 -62.27172852 16.50097656 C-60.09521484 16.16040039 -60.09521484 16.16040039 -57.60375977 16.20800781 C-56.71108398 16.21767578 -55.8184082 16.22734375 -54.89868164 16.23730469 C-53.50552734 16.27500977 -53.50552734 16.27500977 -52.08422852 16.31347656 C-50.67367187 16.3337793 -50.67367187 16.3337793 -49.23461914 16.35449219 C-46.91307814 16.3898456 -44.59269198 16.43918982 -42.27172852 16.50097656 C-42.16860352 15.73785156 -42.06547852 14.97472656 -41.95922852 14.18847656 C-41.19861593 11.21517282 -40.66178137 10.34648575 -38.27172852 8.50097656 C-36.09521484 8.16040039 -36.09521484 8.16040039 -33.60375977 8.20800781 C-32.71108398 8.21767578 -31.8184082 8.22734375 -30.89868164 8.23730469 C-29.50552734 8.27500977 -29.50552734 8.27500977 -28.08422852 8.31347656 C-27.14385742 8.32701172 -26.20348633 8.34054688 -25.23461914 8.35449219 C-22.91307814 8.3898456 -20.59269198 8.43918982 -18.27172852 8.50097656 C-18.18922852 7.73785156 -18.10672852 6.97472656 -18.02172852 6.18847656 C-15.79119676 -1.80426223 -6.70690387 -0.02137659 0 0 Z " fill="#FBFEFE" transform="translate(280.271728515625,100.4990234375)"/>
<path d="M0 0 C13.2 0 26.4 0 40 0 C40 50.82 40 101.64 40 154 C26.8 154 13.6 154 0 154 C0 103.18 0 52.36 0 0 Z " fill="#22D3EE" transform="translate(344,166)"/>
<path d="M0 0 C13.2 0 26.4 0 40 0 C40 50.82 40 101.64 40 154 C26.8 154 13.6 154 0 154 C0 103.18 0 52.36 0 0 Z " fill="#22D3EE" transform="translate(108,166)"/>
<path d="M0 0 C17.16 0 34.32 0 52 0 C53.32 2.97 54.64 5.94 56 9 C59.95335688 15.04065236 65.19329312 19.52297283 72 22 C74.22010851 22.38911866 76.45099345 22.72011863 78.6875 23 C84.39713803 23.72206195 87.3730203 24.44036837 91 29 C91.6875 32 91.6875 32 91 35 C88.93295841 38.01092607 87.28472321 39.74968022 83.6198101 40.46376419 C80.53275296 40.65329119 77.48128316 40.67524566 74.38842773 40.64697266 C73.21394073 40.65573425 72.03945374 40.66449585 70.82937622 40.67352295 C67.61634668 40.69173629 64.40435008 40.68750117 61.19133639 40.67162752 C57.82594596 40.65894699 54.46062331 40.6707143 51.0952301 40.67855835 C45.44527845 40.6876475 39.79565391 40.6756854 34.14575195 40.65185547 C27.61587286 40.62463187 21.08677405 40.63346932 14.55691379 40.6609875 C8.94653792 40.68368321 3.33639682 40.68687697 -2.27401012 40.67379415 C-5.62320334 40.66600364 -8.97202983 40.66494661 -12.32119942 40.68147659 C-16.05394732 40.69414631 -19.785187 40.67485948 -23.51782227 40.64697266 C-24.6270253 40.65709381 -25.73622833 40.66721497 -26.87904358 40.67764282 C-34.34649716 40.57405562 -34.34649716 40.57405562 -37.67857361 37.64706421 C-39.33170502 34.33553281 -39.75967424 32.64643636 -39 29 C-34.85059012 24.06556663 -30.95721972 23.37550932 -24.73828125 22.44140625 C-16.66274398 21.13964347 -11.6448334 17.9179705 -6 12 C-4.02 8.04 -2.04 4.08 0 0 Z " fill="#23D3EE" transform="translate(220,385)"/>
<path d="M0 0 C5.03444895 4.44340253 8.41677941 9.79433154 9.3515625 16.53515625 C9.77855966 24.52449793 7.61794207 30.74465374 2.42578125 36.8515625 C-2.69794316 41.7005884 -8.5795937 43.6335279 -15.5 44.375 C-23.51151059 43.51662387 -29.47177956 40.93492876 -35 35 C-39.60318398 28.65078072 -41.08899296 21.71370016 -40 14 C-37.45851207 6.28476878 -33.0788664 0.77735333 -25.95703125 -3.1171875 C-16.80033424 -7.24775342 -8.01478129 -5.32976244 0 0 Z " fill="#FAFEFE" transform="translate(432,406)"/>
<path d="M0 0 C6.88720206 3.92448914 11.29898606 9.31334319 13.625 16.9375 C15.06194693 25.2688893 12.41850739 32.12050383 7.625 38.9375 C2.05066678 44.16848661 -4.2053159 46.47420177 -11.75 47.3125 C-19.0128119 46.56117463 -25.33548152 43.2060875 -30.375 37.9375 C-34.91918348 31.30154953 -36.77674787 24.92632323 -35.375 16.9375 C-33.08168638 9.93632671 -29.42963264 5.06937768 -23.375 0.9375 C-22.488125 0.31875 -21.60125 -0.3 -20.6875 -0.9375 C-13.69500709 -3.31230891 -6.72975994 -3.08023756 0 0 Z " fill="#FAFEFE" transform="translate(94.375,395.0625)"/>
<path d="M0 0 C1.24479126 -0.01583633 2.48958252 -0.03167267 3.77209473 -0.04798889 C5.12215552 -0.04414743 6.47221337 -0.03910839 7.82226562 -0.03295898 C9.21562108 -0.03819754 10.60897299 -0.04447487 12.00231934 -0.05174255 C14.91756927 -0.06213303 17.83233067 -0.05760497 20.74755859 -0.04296875 C24.47706939 -0.02577362 28.20504053 -0.04928915 31.93437958 -0.08445835 C34.81014139 -0.10645424 37.6855359 -0.10498601 40.56135559 -0.09669304 C41.93603709 -0.09587485 43.31074591 -0.10271302 44.68534851 -0.11746407 C56.76711392 -0.22725744 56.76711392 -0.22725744 60.08374023 2.93945312 C61.77346951 5.60434456 62.32493836 6.59889002 61.79101562 9.65844727 C61.65373047 10.65231445 61.65373047 10.65231445 61.51367188 11.66625977 C60.41784287 14.27226108 59.14454383 15.07548751 56.72851562 16.53344727 C53.88941956 16.92785645 53.88941956 16.92785645 50.57055664 16.95336914 C49.32568985 16.96928101 48.08082306 16.98519287 46.79823303 17.00158691 C45.44296322 17.00285419 44.08769202 17.00303102 42.73242188 17.00219727 C41.33763829 17.00930111 39.94285762 17.01700043 38.54808044 17.02526855 C35.62694167 17.03870483 32.70607311 17.04028612 29.78491211 17.03442383 C26.04757918 17.02852802 22.3115455 17.05911553 18.57446384 17.09954071 C15.69444332 17.12543293 12.81473505 17.12829387 9.93461418 17.12464905 C8.55712557 17.1263389 7.17962232 17.13596869 5.802248 17.15379333 C-6.31196705 17.29331688 -6.31196705 17.29331688 -9.61547852 14.21899414 C-11.81229736 10.65641015 -12.01854878 8.64230149 -11.27148438 4.53344727 C-7.63170739 0.83534052 -5.1236424 0.02905689 0 0 Z " fill="#FDFEFE" transform="translate(184.271484375,189.466552734375)"/>
<path d="M0 0 C1.20174866 -0.01606293 2.40349731 -0.03212585 3.6416626 -0.04867554 C9.14505867 -0.0930516 14.64832299 -0.13463735 20.15185547 -0.15722656 C23.0561482 -0.17055236 25.95973604 -0.19837781 28.86376953 -0.23925781 C32.37397004 -0.28866904 35.88353244 -0.31335789 39.39406586 -0.32045364 C41.37607992 -0.3304003 43.35792428 -0.36462563 45.33966064 -0.39926147 C55.38350496 -0.37568907 55.38350496 -0.37568907 59.09179688 2.53808594 C61.26855469 5.19287109 61.26855469 5.19287109 61.95605469 8.19287109 C61.03668703 12.20465725 59.42217835 13.59448862 56.26855469 16.19287109 C53.26451111 16.82778931 53.26451111 16.82778931 49.8894043 16.83984375 C48.62136459 16.85560455 47.35332489 16.87136536 46.04685974 16.88760376 C44.67153042 16.87865463 43.29620907 16.8683998 41.92089844 16.85693359 C40.5027271 16.86030417 39.08455858 16.8651588 37.66639709 16.87142944 C34.69976189 16.87878728 31.73388123 16.86813053 28.76733398 16.84472656 C24.96818346 16.81621129 21.17079689 16.83266399 17.37171078 16.86258888 C14.44534547 16.88067033 11.51939746 16.87490086 8.59301949 16.86194992 C7.19240674 16.8586195 5.79175586 16.86269034 4.39118767 16.87434769 C2.43356951 16.88706916 0.47581809 16.86423477 -1.48168945 16.83984375 C-2.59467911 16.83586578 -3.70766876 16.83188782 -4.85438538 16.82778931 C-7.73144531 16.19287109 -7.73144531 16.19287109 -10.09080505 13.84384155 C-12.09748166 10.60142422 -12.36949556 8.94141628 -11.73144531 5.19287109 C-8.1000369 0.71413406 -5.60674055 0.06795178 0 0 Z " fill="#FBFEFE" transform="translate(184.7314453125,213.80712890625)"/>
<path d="M0 0 C1.10472153 -0.01583633 2.20944305 -0.03167267 3.34764099 -0.04798889 C4.53624222 -0.04302902 5.72484344 -0.03806915 6.94946289 -0.03295898 C8.78765343 -0.04225685 8.78765343 -0.04225685 10.66297913 -0.05174255 C13.254478 -0.05884634 15.84602245 -0.05565711 18.4375 -0.04296875 C22.40393078 -0.02911626 26.36799752 -0.06315548 30.33422852 -0.10131836 C32.85180722 -0.10226965 35.36938888 -0.10041022 37.88696289 -0.09545898 C39.07353989 -0.10871719 40.26011688 -0.1219754 41.48265076 -0.13563538 C50.64037104 -0.03203626 50.64037104 -0.03203626 53.76806641 2.85009766 C55.48461914 5.53344727 55.48461914 5.53344727 55.54711914 9.09594727 C54.38754009 12.84752654 53.50699834 14.1149554 50.48461914 16.53344727 C47.94923401 17.04811096 47.94923401 17.04811096 45.06103516 17.06689453 C43.43398399 17.09064903 43.43398399 17.09064903 41.77406311 17.11488342 C40.60733566 17.10992355 39.44060822 17.10496368 38.23852539 17.09985352 C36.43362892 17.10915138 36.43362892 17.10915138 34.5922699 17.11863708 C32.04784962 17.12574046 29.50338292 17.12255235 26.95898438 17.10986328 C23.06496607 17.09601075 19.17335583 17.1300503 15.27954102 17.16821289 C12.80753522 17.16916418 10.33552641 17.16730473 7.86352539 17.16235352 C6.69882217 17.17561172 5.53411896 17.18886993 4.3341217 17.20252991 C-3.70959567 17.10985855 -3.70959567 17.10985855 -7.75390625 14.21679688 C-10.07140208 10.68643004 -10.19355239 8.67782884 -9.51538086 4.53344727 C-6.61435367 0.78969897 -4.67497355 0.02984763 0 0 Z " fill="#FAFEFE" transform="translate(182.515380859375,238.466552734375)"/>
<path d="M0 0 C0 1.98 0 3.96 0 6 C-0.60328125 6.24234375 -1.2065625 6.4846875 -1.828125 6.734375 C-7.01099139 8.9078351 -11.36781049 10.73562097 -14 16 C-14.51191364 20.7414952 -14.71505504 24.7074005 -12.375 28.9375 C-8.3290615 32.45107817 -4.28513202 34.2227747 1 35 C1 37.97 1 40.94 1 44 C-8.10714286 42.125 -8.10714286 42.125 -12 40 C-12.66 41.11375 -13.32 42.2275 -14 43.375 C-14.37125 44.00148438 -14.7425 44.62796875 -15.125 45.2734375 C-16.15068348 46.97472667 -16.15068348 46.97472667 -16 49 C-8.24029291 52.31852744 -8.24029291 52.31852744 0 54 C0 54.66 0 55.32 0 56 C-12.8778034 57.05638231 -12.8778034 57.05638231 -17.63671875 54.6875 C-24.02964173 49.23220572 -28.46127477 41.69742742 -29.2578125 33.2734375 C-29.52579714 26.21650863 -28.57291012 21.0880508 -25 15 C-24.649375 14.37351562 -24.29875 13.74703125 -23.9375 13.1015625 C-18.82127771 4.96534789 -9.59517337 -0.44628713 0 0 Z " fill="#2AD4EE" transform="translate(271,264)"/>
<path d="M0 0 C7.97480072 0.20306206 13.17572389 2.34432925 18.94921875 7.86328125 C25.61444172 15.05948634 28.44867427 22.72267419 28.26953125 32.54296875 C27.29107577 41.46251215 22.35158663 47.9646179 16 54 C12.99686252 55.50156874 10.20932478 55.09281204 6.875 55.0625 C5.59367187 55.05347656 4.31234375 55.04445313 2.9921875 55.03515625 C1.51105469 55.01775391 1.51105469 55.01775391 0 55 C0 54.34 0 53.68 0 53 C1.216875 52.731875 2.43375 52.46375 3.6875 52.1875 C7.85262273 51.13331849 11.70958507 50.0564563 14.10546875 46.23828125 C15.81930187 41.94995646 15.62588043 37.52249086 15 33 C11.57073804 27.6274896 5.80095288 26.01625353 0 24 C0 21.03 0 18.06 0 15 C1.4589426 15.47730838 2.91713496 15.95691042 4.375 16.4375 C5.18710937 16.70433594 5.99921875 16.97117187 6.8359375 17.24609375 C9 18 9 18 11 19 C12.56272189 14.60746227 12.56272189 14.60746227 13 10 C11.783125 9.54625 10.56625 9.0925 9.3125 8.625 C6.1919073 7.45547059 3.08769384 6.25437562 0 5 C0 3.35 0 1.7 0 0 Z " fill="#2AD4EE" transform="translate(275,265)"/>
<path d="M0 0 C0.80232056 -0.00004028 1.60464111 -0.00008057 2.43127441 -0.00012207 C4.12239443 0.00522359 5.8135146 0.02276578 7.50439453 0.05175781 C10.08573724 0.09362006 12.66446867 0.09282315 15.24609375 0.0859375 C16.89324721 0.09643096 18.54038728 0.10936992 20.1875 0.125 C21.3392572 0.12530212 21.3392572 0.12530212 22.51428223 0.12561035 C27.0357075 0.22494641 30.01642532 0.76849544 33.59375 3.59375 C35.59375 6.59375 35.59375 6.59375 35.46875 9.53125 C34.42258311 13.19283411 33.65005398 14.33213895 30.59375 16.59375 C27.5551234 17.00361475 24.88600397 17.17860726 21.84765625 17.16015625 C20.99952866 17.16635483 20.15140106 17.17255341 19.27757263 17.17893982 C17.48641099 17.18603375 15.69518336 17.18287135 13.90405273 17.17016602 C11.16851928 17.15631214 8.43641578 17.19035859 5.70117188 17.22851562 C3.9583325 17.22946699 2.21548885 17.22760704 0.47265625 17.22265625 C-0.3420665 17.23591446 -1.15678925 17.24917267 -1.99620056 17.26283264 C-6.27402689 17.19297855 -7.93398435 16.96202775 -11.42211914 14.24194336 C-13.40625 11.59375 -13.40625 11.59375 -14.03125 8.59375 C-12.4447375 0.97849 -6.89259428 -0.14717412 0 0 Z " fill="#FCFEFE" transform="translate(186.40625,262.40625)"/>
<path d="M0 0 C1.27617187 -0.02900391 2.55234375 -0.05800781 3.8671875 -0.08789062 C14.40518049 -0.15939058 14.40518049 -0.15939058 18.09765625 2.0859375 C20.64152123 4.71752197 20.92755664 6.58282946 20.94921875 10.21484375 C19.84810342 13.51818975 17.88973471 15.09558092 15.25 17.3125 C12.11547852 17.95947266 12.11547852 17.95947266 8.62890625 17.9765625 C6.73108398 17.98623047 6.73108398 17.98623047 4.79492188 17.99609375 C3.48072266 17.97675781 2.16652344 17.95742188 0.8125 17.9375 C-0.49783203 17.95683594 -1.80816406 17.97617187 -3.15820312 17.99609375 C-13.84515433 17.94170723 -13.84515433 17.94170723 -17.62109375 14.99609375 C-19.75 12.3125 -19.75 12.3125 -20.375 8.75 C-19.66797896 4.86138428 -18.84308401 3.67779954 -15.75 1.3125 C-11.21068235 -0.95715883 -4.98330249 0.03730017 0 0 Z " fill="#F5FDFE" transform="translate(192.75,286.6875)"/>
<path d="M0 0 C3.70390021 2.02666238 5.65363011 3.48044516 8 7 C8.22705078 8.90112305 8.22705078 8.90112305 8.1953125 11.01171875 C8.19031738 11.69451904 8.18532227 12.37731934 8.18017578 13.08081055 C8.15286377 14.37112183 8.15286377 14.37112183 8.125 15.6875 C8.08375 18.430625 8.0425 21.17375 8 24 C0.08 24 -7.84 24 -16 24 C-16.061875 21.628125 -16.12375 19.25625 -16.1875 16.8125 C-16.21481201 16.07491455 -16.24212402 15.3373291 -16.27026367 14.57739258 C-16.33800537 9.18355082 -14.9327017 6.25481866 -11.5 2.25 C-8.07197204 -0.60668997 -4.23761939 -0.35912029 0 0 Z " fill="#25D3EE" transform="translate(140,68)"/>
<path d="M0 0 C2.64 0 5.28 0 8 0 C8 16.17 8 32.34 8 49 C5.36 49 2.72 49 0 49 C0 32.83 0 16.66 0 0 Z " fill="#2DD5EE" transform="translate(279,117)"/>
<path d="M0 0 C2.64 0 5.28 0 8 0 C8 13.53 8 27.06 8 41 C5.36 41 2.72 41 0 41 C0 27.47 0 13.94 0 0 Z " fill="#28D4EE" transform="translate(254,125)"/>
<path d="M0 0 C2.64 0 5.28 0 8 0 C8 10.89 8 21.78 8 33 C5.36 33 2.72 33 0 33 C0 22.11 0 11.22 0 0 Z " fill="#28D4EE" transform="translate(230,133)"/>
<path d="M0 0 C2.97 0 5.94 0 9 0 C9.02886984 3.97915159 9.04675406 7.95827653 9.0625 11.9375 C9.07087891 13.07380859 9.07925781 14.21011719 9.08789062 15.38085938 C9.09111328 16.46044922 9.09433594 17.54003906 9.09765625 18.65234375 C9.10289307 19.65257568 9.10812988 20.65280762 9.11352539 21.68334961 C9 24 9 24 8 25 C5.36 25 2.72 25 0 25 C0 16.75 0 8.5 0 0 Z " fill="#3AD7EF" transform="translate(205,141)"/>
<path d="M0 0 C4.10703441 0.85563217 5.55401113 2.24378009 8 5.625 C8.62491523 9.58279649 8.61006839 11.63363886 6.5 15.0625 C3.46813683 16.95741448 1.43919544 17.26536692 -2.09375 17.07421875 C-4 16.625 -4 16.625 -6.5 14.5 C-8.27801176 11.09214413 -8.70960213 9.40954468 -8 5.625 C-5.54405875 2.30225596 -4.0743356 0.84881992 0 0 Z " fill="#F7FDFE" transform="translate(124,400.375)"/>
<path d="M0 0 C2.5 2.125 2.5 2.125 4 5 C3.94039986 8.4568084 3.84915243 10.88078074 1.72265625 13.68359375 C-1.04250326 15.79665215 -3.53535765 15.4767131 -6.90234375 15.33984375 C-9 15 -9 15 -11.0625 13.5 C-12.40702719 9.91459416 -12.80931637 6.76910197 -12 3 C-8.39055206 -1.48446562 -5.36203018 -1.65735478 0 0 Z " fill="#F5FDFE" transform="translate(413,93)"/>
<path d="M0 0 C4.10238116 1.34259747 5.44380003 2.30374172 7.4375 6.125 C7.37771398 9.59258942 7.04715977 12.01326749 5.375 15.0625 C2.17257415 16.81866901 -1.05940726 16.74526592 -4.5625 16.125 C-7.0625 14.5625 -7.0625 14.5625 -8.5625 12.125 C-9.28718526 7.69636786 -9.05704049 5.84433162 -6.5 2.125 C-3.5625 0.125 -3.5625 0.125 0 0 Z " fill="#29D4EE" transform="translate(417.5625,416.875)"/>
<path d="M0 0 C4.10238116 1.34259747 5.44380003 2.30374172 7.4375 6.125 C7.37771398 9.59258942 7.04715977 12.01326749 5.375 15.0625 C2.17257415 16.81866901 -1.05940726 16.74526592 -4.5625 16.125 C-7.0625 14.5625 -7.0625 14.5625 -8.5625 12.125 C-9.28718526 7.69636786 -9.05704049 5.84433162 -6.5 2.125 C-3.5625 0.125 -3.5625 0.125 0 0 Z " fill="#F7FDFE" transform="translate(352.5625,416.875)"/>
<path d="M0 0 C1.9375 1.0625 1.9375 1.0625 3 3 C3.75471698 9.79245283 3.75471698 9.79245283 1.4375 13.5 C-1.99136114 15.61006839 -4.04220351 15.62491523 -8 15 C-11 12.9375 -11 12.9375 -13 10 C-13.1506132 5.70752394 -12.66257079 3.77949504 -9.875 0.5 C-6.08386986 -1.47798094 -4.07202027 -1.13111674 0 0 Z " fill="#2BD4EE" transform="translate(88,410)"/>
<path d="M0 0 C3.62336332 2.6571331 4.85568506 4.08600539 5.5625 8.5625 C5 12 5 12 3.5 14.4375 C0.46962931 16.33148168 -1.55830934 16.64334247 -5.08984375 16.4453125 C-7 16 -7 16 -9.5625 13.9375 C-11.46450952 10.0507849 -11.2706357 8.11088021 -10 4 C-6.94716882 0.69276622 -4.52472904 -1.01806403 0 0 Z " fill="#F7FDFE" transform="translate(78,92)"/>
<path d="M0 0 C2.66589042 0.54323805 3.75768995 0.96351964 5.875 2.75 C7.21538506 5.84964046 7.42167869 7.71409302 6.875 11.0625 C4.41905875 14.38524404 2.9493356 15.83868008 -1.125 16.6875 C-5.1993356 15.83868008 -6.66905875 14.38524404 -9.125 11.0625 C-9.75 8.0625 -9.75 8.0625 -9.125 5.0625 C-6.50620524 1.2161452 -4.62486834 -0.35838463 0 0 Z " fill="#F8FDFE" transform="translate(377.125,392.9375)"/>
<path d="M0 0 C2.8125 1.5 2.8125 1.5 5 4 C5.6655395 6.79985585 5.60966834 9.19322499 5 12 C3.4375 14.5 3.4375 14.5 1 16 C-3.42863214 16.72468526 -5.28066838 16.49454049 -9 13.9375 C-11 11 -11 11 -11.125 7.4375 C-9.34460118 1.99739248 -5.90151554 -1.18030311 0 0 Z " fill="#F6FDFE" transform="translate(338,344)"/>
<path d="M0 0 C3.34903861 1.23768818 4.85279734 2.10697303 6.875 5.0625 C7.43302097 8.96864682 7.45892818 11.11361671 5.375 14.5 C2.34313683 16.39491448 0.31419544 16.70286692 -3.21875 16.51171875 C-5.125 16.0625 -5.125 16.0625 -7.625 13.9375 C-9.41452585 10.50757546 -9.91735586 8.86580813 -9.125 5.0625 C-6.16174116 1.74647225 -4.52716343 0.09054327 0 0 Z " fill="#F7FDFE" transform="translate(377.125,83.9375)"/>
<path d="M0 0 C3.34903861 1.23768818 4.85279734 2.10697303 6.875 5.0625 C7.43302097 8.96864682 7.45892818 11.11361671 5.375 14.5 C1.62607996 16.84307502 -0.73535762 16.55023804 -5.125 16.0625 C-7.52399497 14.82430905 -7.89150082 13.76299755 -8.7265625 11.2578125 C-9.22150942 9.03474584 -9.4149361 7.3248802 -9.125 5.0625 C-6.21553217 1.58533113 -4.59811499 0.0919623 0 0 Z " fill="#F8FDFE" transform="translate(385.125,343.9375)"/>
<path d="M0 0 C3.76260269 1.16298629 5.37015019 1.70305656 7.4375 5.0625 C7.75058659 8.94477376 7.28941129 12.0139938 4.8125 15.0625 C1.45854287 16.47469248 -0.96095988 16.51269252 -4.5625 16.0625 C-7 14.5 -7 14.5 -8.5625 12.0625 C-9.28718526 7.63386786 -9.05704049 5.78183162 -6.5 2.0625 C-3.5625 0.0625 -3.5625 0.0625 0 0 Z " fill="#F7FDFE" transform="translate(360.5625,343.9375)"/>
<path d="M0 0 C0.99 0 1.98 0 3 0 C3 2.64 3 5.28 3 8 C0.525 7.01 0.525 7.01 -2 6 C-1.125 1.125 -1.125 1.125 0 0 Z " fill="#45DAF0" transform="translate(269,280)"/>
<path d="M0 0 C2.475 0.99 2.475 0.99 5 2 C5 3.32 5 4.64 5 6 C3.35 6.33 1.7 6.66 0 7 C0 4.69 0 2.38 0 0 Z " fill="#35D6EF" transform="translate(275,301)"/>
</svg>
