<svg version="1.1" id="Layer_1" xmlns="http://www.w3.org/2000/svg" xmlns:xlink="http://www.w3.org/1999/xlink" x="0px" y="0px"
	 width="100%" viewBox="0 0 500 500" enable-background="new 0 0 500 500" xml:space="preserve">
<path fill="#22D2ED" opacity="1.000000" stroke="none" 
	d="
M272.000000,501.000000 
	C181.333359,501.000000 91.166710,501.000000 1.000048,501.000000 
	C1.000032,334.333405 1.000032,167.666794 1.000016,1.000138 
	C167.666565,1.000092 334.333130,1.000092 500.999756,1.000046 
	C500.999847,167.666519 500.999847,334.333038 500.999939,500.999786 
	C424.833344,501.000000 348.666656,501.000000 272.000000,501.000000 
M396.902069,460.795135 
	C399.318481,461.142090 401.730682,461.522186 404.152039,461.830170 
	C413.254517,462.987732 421.621979,460.016510 429.437469,456.153625 
	C436.158325,452.831787 443.333069,449.120178 448.262604,443.715942 
	C466.497314,423.725433 471.516815,399.868622 464.854950,373.893860 
	C459.078125,351.369965 445.300293,335.336639 423.130554,327.267426 
	C419.202240,325.837616 417.787872,323.208405 417.099487,319.585876 
	C413.015564,298.094940 408.957550,276.598969 404.803375,255.121597 
	C393.568909,197.038422 382.311157,138.959717 371.009064,80.889694 
	C369.143555,71.304855 367.806976,61.514179 364.819489,52.273331 
	C359.574493,36.049603 342.274261,31.182766 329.195740,41.803528 
	C323.778595,46.202675 318.540649,50.931469 313.821350,56.062378 
	C292.281555,79.480911 270.961426,103.101410 249.548691,126.636932 
	C239.837814,137.310516 230.095245,147.955261 219.770981,159.266098 
	C218.547958,157.739487 217.683731,156.522644 216.682693,155.431290 
	C184.921967,120.804642 153.248779,86.096489 121.271187,51.671131 
	C116.264397,46.281086 110.256966,41.528446 103.948532,37.759251 
	C100.651894,35.789558 95.305702,35.292141 91.558968,36.402779 
	C80.544235,39.667847 72.987534,51.196278 72.985825,62.719322 
	C72.972595,151.878174 72.919373,241.037048 73.017494,330.195770 
	C73.021935,334.232208 71.655853,336.621307 68.375145,338.706696 
	C32.644516,361.419067 24.537636,412.406342 52.801399,445.893463 
	C78.628914,476.494080 121.874344,473.768341 144.361511,443.022064 
	C151.750610,432.919098 155.583694,421.326569 158.306686,409.191803 
	C158.733353,409.543396 159.109161,409.702881 159.216553,409.970184 
	C159.521255,410.728760 159.760559,411.520935 159.947830,412.318176 
	C162.505920,423.207794 166.095856,433.714081 172.843201,442.769623 
	C187.843735,462.901611 208.660370,470.470184 230.380539,466.430206 
	C264.750885,460.037262 280.451569,426.528748 281.076569,403.440735 
	C281.838684,375.287018 271.942230,352.513885 247.221848,337.249268 
	C245.574219,336.231873 244.298248,333.229340 244.290298,331.144623 
	C244.139954,291.648773 244.136017,252.151627 244.377380,212.656433 
	C244.394653,209.830276 245.871414,206.412659 247.794907,204.289627 
	C272.268707,177.276550 296.937958,150.440430 321.598114,123.596603 
	C323.385895,121.650490 325.489044,119.994034 327.915192,117.772987 
	C328.746979,120.598457 329.463806,122.460274 329.838409,124.388573 
	C343.172852,193.034546 356.481903,261.685486 369.763794,330.341675 
	C370.471710,334.000977 370.458069,337.287964 367.249512,340.344788 
	C350.329834,356.464264 343.905914,376.460236 345.841003,399.518066 
	C348.008179,425.341522 363.987457,452.877502 396.902069,460.795135 
z"/>
<path fill="#010202" opacity="1.000000" stroke="none" 
	d="
M396.519897,460.629333 
	C363.987457,452.877502 348.008179,425.341522 345.841003,399.518066 
	C343.905914,376.460236 350.329834,356.464264 367.249512,340.344788 
	C370.458069,337.287964 370.471710,334.000977 369.763794,330.341675 
	C356.481903,261.685486 343.172852,193.034546 329.838409,124.388573 
	C329.463806,122.460274 328.746979,120.598457 327.915192,117.772987 
	C325.489044,119.994034 323.385895,121.650490 321.598114,123.596603 
	C296.937958,150.440430 272.268707,177.276550 247.794907,204.289627 
	C245.871414,206.412659 244.394653,209.830276 244.377380,212.656433 
	C244.136017,252.151627 244.139954,291.648773 244.290298,331.144623 
	C244.298248,333.229340 245.574219,336.231873 247.221848,337.249268 
	C271.942230,352.513885 281.838684,375.287018 281.076569,403.440735 
	C280.451569,426.528748 264.750885,460.037262 230.380539,466.430206 
	C208.660370,470.470184 187.843735,462.901611 172.843201,442.769623 
	C166.095856,433.714081 162.505920,423.207794 159.947830,412.318176 
	C159.760559,411.520935 159.521255,410.728760 159.216553,409.970184 
	C159.109161,409.702881 158.733353,409.543396 158.306686,409.191803 
	C155.583694,421.326569 151.750610,432.919098 144.361511,443.022064 
	C121.874344,473.768341 78.628914,476.494080 52.801399,445.893463 
	C24.537636,412.406342 32.644516,361.419067 68.375145,338.706696 
	C71.655853,336.621307 73.021935,334.232208 73.017494,330.195770 
	C72.919373,241.037048 72.972595,151.878174 72.985825,62.719322 
	C72.987534,51.196278 80.544235,39.667847 91.558968,36.402779 
	C95.305702,35.292141 100.651894,35.789558 103.948532,37.759251 
	C110.256966,41.528446 116.264397,46.281086 121.271187,51.671131 
	C153.248779,86.096489 184.921967,120.804642 216.682693,155.431290 
	C217.683731,156.522644 218.547958,157.739487 219.770981,159.266098 
	C230.095245,147.955261 239.837814,137.310516 249.548691,126.636932 
	C270.961426,103.101410 292.281555,79.480911 313.821350,56.062378 
	C318.540649,50.931469 323.778595,46.202675 329.195740,41.803528 
	C342.274261,31.182766 359.574493,36.049603 364.819489,52.273331 
	C367.806976,61.514179 369.143555,71.304855 371.009064,80.889694 
	C382.311157,138.959717 393.568909,197.038422 404.803375,255.121597 
	C408.957550,276.598969 413.015564,298.094940 417.099487,319.585876 
	C417.787872,323.208405 419.202240,325.837616 423.130554,327.267426 
	C445.300293,335.336639 459.078125,351.369965 464.854950,373.893860 
	C471.516815,399.868622 466.497314,423.725433 448.262604,443.715942 
	C443.333069,449.120178 436.158325,452.831787 429.437469,456.153625 
	C421.621979,460.016510 413.254517,462.987732 404.152039,461.830170 
	C401.730682,461.522186 399.318481,461.142090 396.519897,460.629333 
M154.322952,375.225037 
	C154.962952,377.621460 155.571213,380.026917 156.251862,382.411743 
	C156.933167,384.798889 157.686813,387.165466 158.621109,390.239807 
	C159.246933,388.909912 159.664932,388.356201 159.770905,387.748108 
	C163.490219,366.404358 173.476501,349.218628 192.240372,337.492737 
	C194.228897,336.250092 195.727066,332.603943 195.741241,330.063263 
	C195.958069,291.233795 195.980957,252.402145 195.725113,213.573120 
	C195.703323,210.268173 194.192642,206.251923 191.997345,203.796692 
	C174.673309,184.421249 157.024460,165.336029 139.453125,146.182083 
	C133.907059,140.136505 128.292938,134.153412 121.650658,127.001053 
	C121.650658,130.207855 121.650192,131.813828 121.650711,133.419800 
	C121.671722,198.581985 121.692734,263.744171 121.714890,328.906342 
	C121.715233,329.906189 121.391212,331.083099 121.803276,331.871918 
	C122.931160,334.031006 123.895653,336.766937 125.764519,337.968964 
	C139.544159,346.831696 149.587372,358.461151 154.322952,375.225037 
z"/>
<path fill="#23D2EC" opacity="1.000000" stroke="none" 
	d="
M154.233459,374.830322 
	C149.587372,358.461151 139.544159,346.831696 125.764519,337.968964 
	C123.895653,336.766937 122.931160,334.031006 121.803276,331.871918 
	C121.391212,331.083099 121.715233,329.906189 121.714890,328.906342 
	C121.692734,263.744171 121.671722,198.581985 121.650711,133.419800 
	C121.650192,131.813828 121.650658,130.207855 121.650658,127.001053 
	C128.292938,134.153412 133.907059,140.136505 139.453125,146.182083 
	C157.024460,165.336029 174.673309,184.421249 191.997345,203.796692 
	C194.192642,206.251923 195.703323,210.268173 195.725113,213.573120 
	C195.980957,252.402145 195.958069,291.233795 195.741241,330.063263 
	C195.727066,332.603943 194.228897,336.250092 192.240372,337.492737 
	C173.476501,349.218628 163.490219,366.404358 159.770905,387.748108 
	C159.664932,388.356201 159.246933,388.909912 158.621109,390.239807 
	C157.686813,387.165466 156.933167,384.798889 156.251862,382.411743 
	C155.571213,380.026917 154.962952,377.621460 154.233459,374.830322 
z"/>
</svg>