<svg fill="none" height="16" viewBox="0 0 16 16" width="16" xmlns="http://www.w3.org/2000/svg"><g fill="#212121"><path d="m4.84985 6.5c0-.27614.22386-.5.5-.5h3.2c.27615 0 .5.22386.5.5v3c0 .27614-.22385.5-.5.5h-3.2c-.27614 0-.5-.22386-.5-.5zm1 2.5h2.2v-2h-2.2z"/><path d="m1.26749 4.01053c.48974-1.10911 1.59917-2.01053 2.9324-2.01053h7.80001c1.4366 0 3 1.18594 3 3 0 1.05577-.591 1.95111-1.0041 2.40671-.0071.54827.0153 1.27447.0418 2.05126l.008.23503c.0273.7922.0556 1.615.0556 2.307 0 .6403-.0663 1.2389-.4941 1.6146-.2128.1869-.47.278-.7299.326-.2566.0475-.5532.0594-.8773.0594h-8.00001c-.94341 0-1.55288-.283-1.86625-.8053-.24769-.4128-.23888-.8945-.23464-1.1268.00047-.0259.00089-.0487.00089-.0679v-4.5792c-1.02802-1.0007-1.106791-2.3359-.6324-3.41027zm2.9324-1.01053c-.86678 0-1.65735.59858-2.01761 1.41447-.34981.79222-.26457 1.71945.54144 2.40456.11176.095.17617.23429.17617.38097v4.8l-.00009.0672c-.00058.2712-.00097.4592.09134.6131.06163.1027.25216.3197 1.00875.3197h6c.31251 0 .52501-.0128.67551-.0419.1455-.0282.1881-.0635.201-.0761.0123-.0121.0484-.0533.078-.198.0308-.1501.0455-.3652.0455-.684 0-.4872-.0037-1.0256-.0074-1.5705-.0075-1.1135-.0152-2.25459.0076-3.04396.0037-.12755.056-.24886.1462-.33909.0805-.08042.1569-.15284.2299-.222.1945-.18418.3644-.34513.5191-.57197.1912-.2803.3466-.65706.3466-1.25248 0-.65557-.2977-1.14209-.7285-1.47796-.4429-.34542-1.0188-.52204-1.51351-.52204zm7.73421 9.8847c-.0079.0386-.0169.0771-.0271.1153h.0929c.3115 0 .5327-.0126.6955-.0427.1595-.0295.2232-.069.2518-.0941.0551-.0484.154-.1998.154-.8632 0-.6736-.0277-1.4787-.0551-2.27529l-.0079-.23268c-.0294-.8619-.0555-1.70414-.0381-2.30649.0038-.13202.0597-.25717.1555-.34812.3024-.28718.8443-1.03159.8443-1.83742 0-.98348-.7129-1.71122-1.5057-1.93103.4467.48275.7477 1.13047.7477 1.93103 0 .79585-.2156 1.36909-.5204 1.81598-.2215.32467-.5018.5893-.7117.78748l-.0152.0143c-.016.75615-.0091 1.7686-.0022 2.77674.0037.5506.0075 1.0999.0075 1.6055 0 .3331-.0139.6314-.0658.8847z"/></g></svg>